<?xml version="1.0" encoding="utf-8"?>
<!-- Generator: Adobe Illustrator 16.0.4, SVG Export Plug-In . SVG Version: 6.00 Build 0)  -->
<!DOCTYPE svg PUBLIC "-//W3C//DTD SVG 1.1//EN" "http://www.w3.org/Graphics/SVG/1.1/DTD/svg11.dtd">
<svg version="1.1" id="Layer_1" xmlns="http://www.w3.org/2000/svg" xmlns:xlink="http://www.w3.org/1999/xlink" x="0px" y="0px"
	 width="157.7px" height="157.7px" viewBox="0 0 157.7 157.7" style="enable-background:new 0 0 157.7 157.7;" xml:space="preserve"
	>
<style type="text/css">
<![CDATA[
	.st0{fill:none;stroke:#981B1E;stroke-width:3;stroke-miterlimit:10;}
	.st1{fill:#981B1E;}
	.st2{fill-rule:evenodd;clip-rule:evenodd;fill:#981B1E;}
]]>
</style>
<path class="st0" d="M89,152c-5.6,5.6-14.7,5.6-20.4,0L5.7,89c-5.6-5.6-5.6-14.7,0-20.4L68.7,5.7c5.6-5.6,14.7-5.6,20.4,0L152,68.7
	c5.6,5.6,5.6,14.7,0,20.4L89,152z"/>
<g id="LrQ9Yo.tif">
	<g>
		<path class="st1" d="M48.2,96.4c0-6.9,0-13.8,0-20.7c7.9,0,15.9,0,23.8,0c-2.3,6.7-1,12.4,4.8,16.5c4.7,3.3,9.9,3.4,14.7,0.2
			c6.1-4.1,7.4-9.9,5.1-16.7c4.3,0,8.6,0,13,0c0,6.9,0,13.8,0,20.6c0,0.1-0.1,0.2-0.1,0.3c-0.2,1.3-0.8,2.3-1.8,3.1
			c-0.7,0.6-1.6,0.8-2.5,1.1c-17.5,0-35,0-52.5,0c-0.1,0-0.2-0.1-0.3-0.1c-1.2-0.2-2.2-0.8-3-1.8C48.7,98.2,48.4,97.3,48.2,96.4z"/>
		<path class="st2" d="M109.5,66.5c0,2.6,0,5.2,0,7.9c-4.4,0-8.8,0-13.2,0c-0.4,0-0.6-0.1-0.9-0.5c-5.3-8.1-17-8.2-22.3,0
			c-0.2,0.3-0.4,0.5-0.9,0.5c-7.8,0-15.6,0-23.4,0c-0.2,0-0.4,0-0.7,0c0-2.6,0-5.2,0-7.9c0.2-0.5,0.3-1,0.5-1.5c1-2,2.6-2.9,4.8-2.9
			c16.9,0,33.8,0,50.8,0c0.1,0,0.3,0,0.4,0c1.9,0.1,3.3,1,4.2,2.6C109.1,65.2,109.3,65.9,109.5,66.5z"/>
		<path class="st2" d="M86.2,56.9c0.9,1.4,1.8,2.9,2.7,4.4c-6.8,0-13.6,0-20.5,0c1-1.5,2-2.9,3-4.4C76.3,56.9,81.3,56.9,86.2,56.9z
			 M81.4,57.9c-1.8,0-3.5,0-5.2,0c0,0.9,0,1.7,0,2.5c1.8,0,3.5,0,5.2,0C81.4,59.6,81.4,58.8,81.4,57.9z"/>
		<path class="st2" d="M92.8,81.2c0.1,4.6-3.7,8.5-8.5,8.6c-4.6,0.1-8.5-3.7-8.6-8.4c-0.1-4.6,3.7-8.6,8.4-8.7
			C88.8,72.5,92.7,76.3,92.8,81.2z"/>
		<path class="st2" d="M103.2,61.3c-2.7,0-5.3,0-8.1,0c0.3-0.8,0.7-1.6,1-2.4c0-0.1,0.2-0.1,0.4-0.1c1.8,0,3.6,0,5.4,0
			c0.1,0,0.3,0.1,0.4,0.2C102.6,59.7,102.9,60.5,103.2,61.3z"/>
		<path class="st2" d="M56,61.2c0.1-0.5,0.3-0.9,0.4-1.3c0-0.1,0.2-0.2,0.4-0.2c1.4,0,2.8,0,4.2,0c0.1,0.5,0.2,1,0.4,1.6
			C59.6,61.2,57.8,61.2,56,61.2z"/>
	</g>
</g>
</svg>
