<?xml version="1.0" encoding="utf-8"?>
<!-- Generator: Adobe Illustrator 16.0.0, SVG Export Plug-In . SVG Version: 6.00 Build 0)  -->
<!DOCTYPE svg PUBLIC "-//W3C//DTD SVG 1.1//EN" "http://www.w3.org/Graphics/SVG/1.1/DTD/svg11.dtd" [
	<!ENTITY ns_extend "http://ns.adobe.com/Extensibility/1.0/">
	<!ENTITY ns_ai "http://ns.adobe.com/AdobeIllustrator/10.0/">
	<!ENTITY ns_graphs "http://ns.adobe.com/Graphs/1.0/">
	<!ENTITY ns_vars "http://ns.adobe.com/Variables/1.0/">
	<!ENTITY ns_imrep "http://ns.adobe.com/ImageReplacement/1.0/">
	<!ENTITY ns_sfw "http://ns.adobe.com/SaveForWeb/1.0/">
	<!ENTITY ns_custom "http://ns.adobe.com/GenericCustomNamespace/1.0/">
	<!ENTITY ns_adobe_xpath "http://ns.adobe.com/XPath/1.0/">
]>
<svg version="1.1" xmlns:x="&ns_extend;" xmlns:i="&ns_ai;" xmlns:graph="&ns_graphs;"
	 xmlns="http://www.w3.org/2000/svg" xmlns:xlink="http://www.w3.org/1999/xlink" x="0px" y="0px" width="488.55px"
	 height="190.1px" viewBox="0 0 488.55 190.1" enable-background="new 0 0 488.55 190.1" xml:space="preserve">
<metadata>
	<sfw  xmlns="&ns_sfw;">
		<slices></slices>
		<sliceSourceBounds  width="472.755" height="168.194" y="312.355" x="248.115" bottomLeftOrigin="true"></sliceSourceBounds>
	</sfw>
</metadata>
<g id="chantry_island">
	<path id="circle" fill="#981B1E" d="M15.2,112.6C20.4,137,42.1,155.2,68,155.2c25.899,0,47.6-18.301,52.8-42.601l-4-0.3
		c-5.1,22.2-25,38.9-48.8,38.9s-43.7-16.7-48.8-38.9L15.2,112.6z M68,51.3c23.8,0,43.7,16.7,48.8,38.9l4-0.301
		C115.6,65.6,94,47.3,68,47.3l0,0c-25.9,0-47.601,18.3-52.8,42.6l4,0.301C24.3,67.9,44.3,51.3,68,51.3"/>
	<g id="little_arrows">
		<polygon id="tr" fill="#475A84" points="92.6,73 101.5,67.8 96.3,76.8 		"/>
		<polygon id="bl" fill="#475A84" points="43.5,129.6 34.5,134.8 39.8,125.8 		"/>
		<polygon id="tl" fill="#475A84" points="39.8,76.8 34.5,67.8 43.5,73 		"/>
		<polygon id="br" fill="#475A84" points="96.3,125.8 101.5,134.8 92.6,129.6 		"/>
	</g>
	<g id="large_arrow">
		<polygon id="large_arrows_1_" fill="#475A84" points="68,138.5 76.7,137.6 68,178 		"/>
		<polygon id="large_arrows_2_" fill="#F4F4F4" points="68,138.5 59.4,137.6 68,178 		"/>
		<polyline fill="none" stroke="#000000" stroke-width="0.5" stroke-linecap="square" stroke-miterlimit="10" points="59.4,137.6 
			68,178 76.7,137.6 		"/>
	</g>
	<path id="bottom_arch" fill="none" stroke="#000000" stroke-miterlimit="10" d="M125.1,113l-21.1-1.5
		c-4.4,15.7-18.8,27.1-35.9,27.1c-17.1,0-31.5-11.5-35.899-27.1L10.7,113"/>
	<g id="lighthouse">
		<g>
			<path fill="#FFFFFF" d="M59.7,45.3l-1.4,19.9l6.4-1.101H71l6.8,1.2l-1.4-19.9l0,0C73.7,44.9,70.9,44.7,68,44.7
				C65.2,44.6,62.4,44.8,59.7,45.3z"/>
			<path fill="#FFFFFF" d="M60.2,37.1c2.6-0.399,5.199-0.5,7.8-0.5c2.7,0,5.3,0.2,7.8,0.5l-0.3-4.3l0.7-2l-16.5-0.2l0.699,2.2
				L60.2,37.1z"/>
			<polyline fill="none" stroke="#000000" stroke-width="0.5" stroke-miterlimit="10" points="59.7,45.3 58.3,65.2 64.7,64.1 
				71,64.1 77.8,65.2 76.4,45.3 			"/>
			<polyline fill="none" stroke="#000000" stroke-width="0.5" stroke-miterlimit="10" points="75.9,37.1 75.6,32.8 76.3,30.7 
				59.8,30.6 60.5,32.8 60.2,37.1 			"/>
		</g>
		<g id="top">
			<ellipse fill="#D1243D" cx="68" cy="18.2" rx="5.5" ry="5"/>
			<rect x="67.8" y="12.5" fill="#D1243D" width="0.4" height="1.5"/>
			<circle fill="#D1243D" cx="68" cy="12" r="1"/>
			<path fill="#D1243D" d="M74.2,17.7c0,0.199-0.2,0.399-0.4,0.399H62.2c-0.2,0-0.4-0.2-0.4-0.399l0,0c0-0.2,0.2-0.4,0.4-0.4h11.6
				C74,17.3,74.2,17.5,74.2,17.7L74.2,17.7z"/>
		</g>
		<g>
			<rect x="62.5" y="17.7" fill="#383838" width="11" height="9.5"/>
			<line fill="none" stroke="#E8E8E8" stroke-width="0.3" stroke-miterlimit="10" x1="70.1" y1="17.7" x2="70.1" y2="27.2"/>
			<line fill="none" stroke="#E8E8E8" stroke-width="0.3" stroke-miterlimit="10" x1="68" y1="17.7" x2="68" y2="27.2"/>
			<line fill="none" stroke="#E8E8E8" stroke-width="0.3" stroke-miterlimit="10" x1="66" y1="17.7" x2="66" y2="27.2"/>
			<line fill="none" stroke="#E8E8E8" stroke-width="0.3" stroke-miterlimit="10" x1="72.1" y1="17.7" x2="72.1" y2="27.2"/>
			<line fill="none" stroke="#E8E8E8" stroke-width="0.3" stroke-miterlimit="10" x1="64" y1="17.7" x2="64" y2="27.2"/>
			<line fill="none" stroke="#E8E8E8" stroke-width="0.3" stroke-miterlimit="10" x1="73.5" y1="23.2" x2="62.5" y2="23.2"/>
			<line fill="none" stroke="#E8E8E8" stroke-width="0.3" stroke-miterlimit="10" x1="73.5" y1="20.2" x2="62.5" y2="20.2"/>
		</g>
		<path fill="#D1243D" d="M76.3,26.7c0-0.801-3.7-1.4-8.2-1.4c-4.6,0-8.2,0.6-8.2,1.4l0,0V30.6h16.5V26.7H76.3z"/>
		<path opacity="0.85" fill="#FFFFFF" enable-background="new    " d="M74.8,31c0,0,0.4-2.4-1-3.101c-1.4-0.699-2.6,0.801-3.9,0
			C69.2,27.5,68.6,27.2,67.8,27.2l0,0c-0.8,0-1.4,0.3-2.1,0.699c-1.2,0.801-2.5-0.699-3.9,0c-1.4,0.7-1,3.101-1,3.101H74.8z"/>
		<path fill="#303030" d="M60.5,32.8C62.3,32.3,65,32,68,32s5.7,0.3,7.5,0.8c1.399-0.4,2.3-0.9,2.3-1.4c0-1.199-4.4-2.199-9.8-2.199
			c-5.4,0-9.8,1-9.8,2.199C58.2,31.9,59.1,32.4,60.5,32.8z"/>
		<line fill="none" stroke="#191919" stroke-width="0.8" stroke-miterlimit="10" x1="73.5" y1="57" x2="73.5" y2="61.6"/>
		<line fill="none" stroke="#191919" stroke-width="0.8" stroke-miterlimit="10" x1="63.2" y1="44.8" x2="63.2" y2="49.4"/>
	</g>
	<g id="Chantry_Island_Tours">
		<path fill="#475A84" d="M34.1,46.6c0.4-0.1,0.601-0.1,0.601-0.1c0.1-0.101,0.1-0.101,0.1-0.2s0-0.2,0-0.3L35,45.9l1.1,1.7
			L35.9,47.7C35.5,47.4,35.1,47.2,34.8,47.1c-0.6-0.2-1.1-0.2-1.5,0.101c-0.5,0.3-0.7,0.699-0.6,1.3c0.1,0.5,0.3,1.2,0.8,1.899
			c0.3,0.5,0.7,0.9,1,1.2c0.6,0.5,1.2,0.601,1.8,0.2c0.4-0.2,0.6-0.5,0.8-0.9c0.101-0.199,0.2-0.6,0.2-1L37.6,50
			c-0.1,0.5-0.2,0.899-0.3,1.1c-0.2,0.5-0.5,0.9-1,1.101c-0.7,0.399-1.4,0.6-2.1,0.399c-0.801-0.2-1.5-0.7-2-1.5s-0.7-1.6-0.5-2.399
			C31.9,47.9,32.3,47.4,32.9,47C33.4,46.8,33.8,46.7,34.1,46.6z"/>
		<path fill="#475A84" d="M38.6,50.5c0.101-0.101,0.2-0.2,0.2-0.3c0-0.101,0-0.2-0.1-0.4l-2-4c-0.101-0.2-0.2-0.3-0.2-0.3
			c-0.101,0-0.2,0-0.4,0L36,45.4L37.4,44.7L38.5,46.9c0-0.3,0.1-0.5,0.2-0.699c0.1-0.2,0.3-0.301,0.5-0.4c0.3-0.1,0.5-0.2,0.8-0.1
			c0.3,0.1,0.5,0.3,0.7,0.8l1,1.899C41.8,48.6,41.9,48.7,42,48.7c0.1,0,0.2,0,0.3,0l0.1,0.199L40.7,49.8L40.6,49.6
			c0.101-0.1,0.2-0.2,0.2-0.2c0-0.1,0-0.199-0.1-0.399l-1-1.9C39.6,46.9,39.5,46.8,39.4,46.7c-0.1-0.101-0.3-0.2-0.5-0.101
			C38.8,46.7,38.7,46.8,38.6,47c-0.1,0.2-0.1,0.3-0.1,0.399l1.1,2.101c0.101,0.2,0.2,0.3,0.2,0.3c0.1,0,0.2,0,0.3,0L40.2,50
			L38.5,50.9L38.6,50.5z"/>
		<path fill="#475A84" d="M42.5,46.8c0.2-0.3,0.6-0.8,1.2-1.3L43.5,45c-0.101-0.2-0.2-0.4-0.4-0.5c-0.1-0.101-0.3-0.101-0.6,0
			c-0.101,0.1-0.2,0.1-0.3,0.2C42.1,44.8,42.1,44.9,42.2,45v0.1c0,0,0,0,0.1,0h0.1C42.5,45.1,42.5,45.2,42.5,45.2s0.1,0.1,0.1,0.199
			c0.101,0.2,0.101,0.301,0,0.4c-0.1,0.1-0.1,0.2-0.3,0.3c-0.1,0.101-0.3,0.101-0.4,0c-0.1,0-0.199-0.2-0.3-0.3
			c-0.1-0.3-0.1-0.6,0.101-0.9c0.199-0.3,0.5-0.5,0.899-0.699C43,44,43.4,44,43.8,44c0.4,0.1,0.6,0.3,0.8,0.8l0.8,2
			c0,0.1,0.101,0.1,0.101,0.1h0.1c0,0,0.101,0,0.101-0.1c0,0,0-0.1,0.1-0.1l0.2,0.1c-0.101,0.2-0.2,0.4-0.3,0.6
			C45.6,47.5,45.5,47.6,45.4,47.6C45.2,47.7,45,47.7,44.8,47.6c-0.1-0.1-0.2-0.2-0.3-0.3c-0.101,0.3-0.3,0.6-0.5,0.8
			c-0.101,0.101-0.3,0.2-0.4,0.3c-0.2,0.101-0.399,0.101-0.7,0c-0.3-0.1-0.399-0.199-0.5-0.5C42.2,47.5,42.2,47.2,42.5,46.8z
			 M44.2,47.3c0-0.1,0.1-0.2,0.1-0.3l-0.5-1.2c-0.2,0.1-0.3,0.3-0.4,0.5c-0.199,0.3-0.199,0.6-0.1,0.9c0.1,0.199,0.2,0.3,0.3,0.399
			c0.101,0.101,0.2,0.101,0.3,0C44.1,47.5,44.1,47.4,44.2,47.3z"/>
		<path fill="#475A84" d="M46.2,46.9c0.1-0.1,0.199-0.1,0.3-0.199c0-0.101,0-0.2,0-0.4l-0.8-2.4C45.6,43.7,45.6,43.6,45.5,43.6
			c-0.101,0-0.2-0.1-0.4,0L45,43.4l1.399-0.5l0.2,0.601c0.101-0.2,0.101-0.5,0.3-0.7C47,42.6,47.2,42.5,47.5,42.4
			c0.3-0.1,0.6-0.1,0.899,0c0.2,0.101,0.4,0.4,0.601,0.9l0.7,2c0.1,0.2,0.1,0.3,0.199,0.3c0.101,0,0.2,0,0.301,0l0.1,0.2l-1.8,0.6
			L48.4,46.2C48.5,46.1,48.6,46.1,48.6,46c0-0.101,0-0.2,0-0.4l-0.7-2c-0.1-0.2-0.1-0.3-0.199-0.399C47.6,43.1,47.4,43,47.3,43.1
			c-0.1,0-0.2,0.101-0.3,0.3C46.9,43.5,46.9,43.7,46.9,43.8L47.7,46c0.1,0.2,0.1,0.3,0.199,0.3c0.101,0,0.2,0,0.301,0l0.1,0.2
			l-1.8,0.6L46.2,46.9z"/>
		<path fill="#475A84" d="M49.4,42.2V42c0-0.101,0.101-0.2,0.2-0.3c0.101-0.2,0.2-0.301,0.3-0.5c0.2-0.301,0.301-0.7,0.4-1.101
			l0.2-0.1L50.9,41.4l0.7-0.199L51.7,41.6L51,41.8l0.7,2.5c0,0.1,0.1,0.2,0.1,0.3C51.9,44.7,52,44.7,52.1,44.7
			c0.101,0,0.2-0.101,0.2-0.2c0-0.101,0.1-0.2,0.1-0.4h0.2c0,0.3-0.1,0.5-0.2,0.7C52.2,45.1,52,45.3,51.7,45.4
			c-0.2,0.101-0.4,0.101-0.5,0C50.9,45.3,50.7,45.1,50.6,44.7L49.8,42L49.4,42.2z"/>
		<path fill="#475A84" d="M52.9,44.8c0.101-0.1,0.2-0.1,0.301-0.2c0.1-0.1,0.1-0.2,0-0.399V43.9l-0.5-2.3c0-0.2-0.101-0.3-0.2-0.3
			c-0.101-0.1-0.2-0.1-0.4-0.1V41l1.5-0.3l0.2,0.699c0.1-0.3,0.2-0.5,0.4-0.699c0.1-0.2,0.3-0.301,0.5-0.301
			c0.199,0,0.3,0,0.5,0.101c0.199,0.1,0.3,0.2,0.3,0.399c0,0.2,0,0.301,0,0.4c-0.101,0.1-0.2,0.2-0.3,0.2c-0.2,0-0.301,0-0.5-0.2
			c-0.2-0.1-0.301-0.2-0.301-0.2c-0.1,0-0.199,0.101-0.3,0.3C54,41.6,54,41.8,54.1,42l0.4,1.6c0.1,0.3,0.1,0.4,0.2,0.5
			c0.1,0.101,0.3,0.101,0.5,0v0.2L52.9,45V44.8z"/>
		<path fill="#475A84" d="M56.5,44.9c0.1-0.1,0.2-0.199,0.399-0.199c0.101,0,0.301,0,0.4,0.1s0.2,0.2,0.2,0.3v0.2c0,0,0,0.1,0.1,0.1
			H57.7C57.8,45.4,57.9,45.2,58,45c0.1-0.2,0.1-0.5,0.2-0.9L56.8,41.7c-0.1-0.2-0.2-0.301-0.3-0.5C56.4,41,56.3,40.9,56.2,40.8
			C56.1,40.7,56,40.6,56,40.5c0,0-0.101,0-0.2,0v-0.2l2-0.3v0.2c-0.1,0-0.2,0.1-0.3,0.1c-0.101,0-0.101,0.1-0.101,0.2c0,0,0,0,0,0.1
			c0,0.101,0,0.101,0.101,0.2l0.899,1.6l0,0l0.301-1.6c0-0.1,0-0.2,0-0.2c0-0.1,0-0.1,0-0.2c0-0.1-0.101-0.199-0.101-0.199
			c-0.1,0-0.2,0-0.3,0V40l1.2-0.2V40c-0.101,0-0.2,0.1-0.2,0.1s-0.1,0.2-0.1,0.4L58.4,44C58.3,44.7,58.1,45.1,58,45.4
			c-0.101,0.301-0.4,0.4-0.7,0.5c-0.3,0-0.5,0-0.6-0.1c-0.2-0.1-0.2-0.3-0.301-0.4C56.4,45.2,56.4,45,56.5,44.9z"/>
		<path fill="#475A84" d="M62.2,43.2c0.199,0,0.399-0.101,0.5-0.101C62.9,43,62.9,42.8,62.9,42.6l-0.3-4.2c0-0.3-0.1-0.399-0.3-0.5
			c-0.1,0-0.3-0.1-0.5-0.1v-0.2l2.8-0.2v0.2c-0.3,0-0.399,0.101-0.5,0.101c-0.2,0.1-0.2,0.3-0.2,0.5L64.2,42.4
			c0,0.2,0.1,0.4,0.199,0.5C64.5,43,64.7,43,65,43v0.2L62.2,43.4V43.2z"/>
		<path fill="#475A84" d="M65.3,41.8h0.2c0.1,0.4,0.2,0.7,0.5,0.9C66.2,42.9,66.4,42.9,66.7,42.9c0.199,0,0.399-0.1,0.5-0.199
			c0.1-0.101,0.1-0.2,0.1-0.4s-0.1-0.3-0.2-0.4c-0.1-0.1-0.2-0.1-0.3-0.199L66.2,41.4c-0.301-0.199-0.5-0.3-0.7-0.5
			C65.4,40.7,65.3,40.5,65.3,40.2c0-0.301,0.1-0.601,0.3-0.9s0.5-0.4,0.9-0.4c0.2,0,0.399,0,0.5,0.101c0.2,0.1,0.3,0.1,0.399,0.1
			c0.101,0,0.101,0,0.101,0s0-0.1,0.1-0.1h0.2v1.3h-0.2c-0.1-0.3-0.2-0.5-0.399-0.7c-0.2-0.2-0.4-0.3-0.601-0.3s-0.3,0.1-0.399,0.2
			C66.1,39.6,66.1,39.7,66.1,39.9c0,0.101,0,0.2,0.101,0.301c0.1,0.1,0.199,0.199,0.399,0.3l0.4,0.2c0.3,0.1,0.5,0.3,0.6,0.399
			c0.2,0.2,0.3,0.5,0.3,0.8c0,0.301-0.1,0.601-0.3,0.9s-0.5,0.4-1,0.4c-0.1,0-0.2,0-0.3,0S66.1,43.1,65.9,43.1h-0.1
			c-0.1,0-0.1,0-0.1,0l0,0c0,0-0.101,0-0.101,0.101c0,0-0.1,0.1-0.1,0.199h-0.2V41.8z"/>
		<path fill="#475A84" d="M68.4,42.9c0.101,0,0.2-0.1,0.301-0.1c0.1,0,0.1-0.2,0.1-0.4l0.1-4.5c0-0.199,0-0.3-0.1-0.399
			C68.7,37.4,68.6,37.4,68.5,37.4V37.2H70L69.9,42.4c0,0.2,0,0.301,0.101,0.4c0.1,0.1,0.2,0.1,0.3,0.2v0.2h-1.9V42.9z"/>
		<path fill="#475A84" d="M71.2,41.4C71.6,41.2,72.1,41,72.9,40.8v-0.6c0-0.301,0-0.5-0.1-0.601c-0.1-0.1-0.3-0.2-0.5-0.2
			c-0.1,0-0.3,0-0.4,0.101c-0.1,0.1-0.1,0.1-0.199,0.2v0.1c0,0,0,0,0,0.1V40c0.3,0,0.3,0,0.3,0.1c0,0.101,0,0.101,0,0.2
			c0,0.2-0.101,0.3-0.2,0.4c-0.1,0.1-0.2,0.1-0.4,0.1c-0.199,0-0.3-0.1-0.399-0.2C70.9,40.5,70.9,40.3,70.9,40.2
			c0-0.301,0.2-0.601,0.5-0.801C71.7,39.2,72.1,39.2,72.5,39.2c0.5,0,0.8,0.199,1.1,0.399S74,40.2,74,40.7l-0.2,2.1
			c0,0.1,0,0.1,0,0.2l0.1,0.1H74c0,0,0.1,0,0.1-0.1l0.101,0.2C74,43.4,73.8,43.5,73.6,43.6c-0.1,0-0.3,0.101-0.399,0
			c-0.2,0-0.4-0.1-0.5-0.3C72.6,43.2,72.6,43.1,72.6,42.9c-0.2,0.2-0.5,0.4-0.8,0.5C71.6,43.5,71.5,43.5,71.3,43.5
			s-0.4-0.101-0.6-0.3c-0.2-0.2-0.301-0.4-0.2-0.7C70.7,41.9,70.9,41.6,71.2,41.4z M72.6,42.7c0.101,0,0.101-0.101,0.2-0.2l0.1-1.3
			c-0.199,0-0.399,0.1-0.6,0.199c-0.3,0.2-0.4,0.4-0.5,0.801c0,0.199,0,0.3,0.1,0.399C72,42.7,72.1,42.8,72.2,42.8
			C72.3,42.8,72.4,42.7,72.6,42.7z"/>
		<path fill="#475A84" d="M74.5,43.2c0.1,0,0.3,0,0.3-0.101c0-0.1,0.1-0.2,0.2-0.399l0.399-2.5c0-0.2,0-0.301,0-0.4
			s-0.199-0.1-0.3-0.2v-0.2l1.5,0.2L76.5,40.2c0.2-0.2,0.3-0.301,0.6-0.5c0.2-0.101,0.4-0.101,0.7-0.101s0.6,0.2,0.8,0.4
			s0.2,0.6,0.101,1.1L78.4,43.2c0,0.199,0,0.3,0,0.399C78.5,43.7,78.6,43.7,78.7,43.8V44l-1.9-0.3v-0.2c0.1,0,0.3,0,0.3-0.101
			C77.2,43.4,77.2,43.2,77.2,43l0.3-2.101c0-0.199,0-0.3,0-0.5c0-0.199-0.101-0.3-0.3-0.3c-0.101,0-0.301,0-0.4,0.101
			c-0.1,0.1-0.2,0.199-0.3,0.3l-0.3,2.3c0,0.2,0,0.3,0,0.4c0,0.1,0.1,0.1,0.3,0.199v0.2l-1.9-0.3L74.5,43.2z"/>
		<path fill="#475A84" d="M80.1,40.7c0.4-0.301,0.8-0.4,1.2-0.4c0.2,0,0.4,0.1,0.5,0.3c0.1,0.101,0.2,0.2,0.3,0.4l0.3-1.601
			c0-0.199,0-0.399,0-0.399C82.3,38.9,82.2,38.9,81.9,38.8v-0.2l1.7,0.4l-1,5c0,0.2,0,0.3,0,0.399c0,0.101,0.2,0.101,0.3,0.2v0.2
			c-0.5,0-0.699-0.1-0.899-0.1c-0.101,0-0.4,0-0.7,0l0.1-0.601c-0.199,0.101-0.3,0.2-0.5,0.3C80.7,44.5,80.5,44.5,80.2,44.5
			c-0.4-0.101-0.7-0.3-0.9-0.7s-0.2-0.9-0.1-1.5C79.4,41.5,79.7,41,80.1,40.7z M81.2,43.9c0.199-0.1,0.3-0.199,0.3-0.3l0.399-2.1
			c0-0.101,0-0.2-0.1-0.3C81.7,41,81.6,40.9,81.4,40.9C81.1,40.8,80.9,41,80.7,41.4c-0.101,0.2-0.2,0.5-0.301,0.9
			c-0.1,0.4-0.1,0.8-0.1,1c0,0.4,0.1,0.7,0.4,0.7C80.9,44.1,81.1,44.1,81.2,43.9z"/>
		<path fill="#475A84" d="M86.8,39.9l4.6,1.5l-0.6,1.7L90.7,43c0.1-0.601,0.1-1.101-0.2-1.4c-0.2-0.2-0.4-0.3-0.8-0.5l-1.5,4.4
			C88.1,45.8,88.1,46,88.1,46.2c0.101,0.1,0.3,0.3,0.601,0.399L88.6,46.8l-2.7-0.9L86,45.7c0.3,0.1,0.5,0.1,0.6,0
			C86.7,45.6,86.8,45.4,87,45.1l1.5-4.399C88.1,40.6,87.8,40.6,87.6,40.6c-0.399,0.101-0.8,0.4-1,1l-0.2-0.1L86.8,39.9z"/>
		<path fill="#475A84" d="M91,43.8c0.5-0.2,1-0.3,1.399-0.1c0.5,0.199,0.801,0.6,1,1.1c0.2,0.5,0.101,1-0.1,1.6
			c-0.2,0.5-0.6,0.9-1,1.2c-0.5,0.3-1,0.3-1.5,0.101c-0.5-0.2-0.8-0.601-1-1.101s-0.1-1,0.1-1.6C90.2,44.5,90.6,44.1,91,43.8z
			 M90.7,46.7C90.6,47.1,90.7,47.3,91,47.4c0.2,0.101,0.5,0,0.6-0.199c0.2-0.2,0.4-0.7,0.7-1.301c0.2-0.6,0.4-1.1,0.4-1.399
			S92.6,44,92.4,43.9c-0.3-0.1-0.5,0-0.699,0.301C91.5,44.4,91.4,44.8,91.1,45.4C90.8,46.1,90.7,46.5,90.7,46.7z"/>
		<path fill="#475A84" d="M96,45.4l-1.3,2.7C94.6,48.3,94.6,48.4,94.6,48.5c0,0.2,0.101,0.3,0.3,0.399C95,49,95.1,49,95.3,48.9
			c0.1,0,0.2,0,0.3-0.1l1.101-2.2c0.1-0.2,0.1-0.3,0.1-0.399c0-0.101-0.1-0.2-0.3-0.301l0.1-0.199L98,46.4L96.6,49.2
			c-0.1,0.199-0.1,0.3-0.1,0.399c0,0.101,0.1,0.2,0.3,0.3l-0.1,0.2c-0.5-0.2-0.801-0.3-0.9-0.3s-0.3-0.1-0.6-0.1l0.3-0.5
			c-0.3,0.1-0.5,0.1-0.601,0.1c-0.3,0-0.5,0-0.699-0.1C94,49.1,93.8,48.9,93.7,48.6c-0.101-0.3-0.101-0.6,0.1-1l1-2
			c0.1-0.2,0.1-0.3,0.1-0.399c0-0.101-0.1-0.2-0.199-0.301l0.1-0.199L96,45.4z"/>
		<path fill="#475A84" d="M96.9,50.2C97,50.3,97.2,50.3,97.2,50.3s0.199-0.1,0.3-0.3l0.1-0.2l1.2-2.1c0.1-0.2,0.1-0.301,0.1-0.4
			S98.8,47.1,98.7,47l0.1-0.2l1.3,0.8L99.8,48.2c0.3-0.101,0.5-0.2,0.7-0.2s0.399,0,0.6,0.1c0.101,0.101,0.2,0.2,0.3,0.4
			c0.101,0.2,0,0.3-0.1,0.5c-0.1,0.1-0.2,0.2-0.3,0.3c-0.101,0-0.3,0-0.4,0c-0.1-0.1-0.2-0.2-0.3-0.4c0-0.199-0.1-0.3-0.1-0.399
			c-0.101-0.101-0.2,0-0.4,0c-0.2,0.1-0.3,0.2-0.5,0.5L98.5,50.4c-0.101,0.301-0.2,0.4-0.2,0.5c0,0.101,0.1,0.2,0.3,0.4l-0.1,0.2
			L96.6,50.4L96.9,50.2z"/>
		<path fill="#475A84" d="M100.6,51l0.2,0.1c-0.2,0.4-0.2,0.7-0.1,1c0.1,0.3,0.199,0.5,0.399,0.601c0.2,0.1,0.3,0.199,0.5,0.1
			s0.2-0.1,0.3-0.3C102,52.4,102,52.2,102,52.1c0-0.1-0.101-0.2-0.101-0.3l-0.3-0.6c-0.2-0.301-0.3-0.601-0.3-0.801
			c0-0.199,0.1-0.5,0.2-0.699c0.2-0.301,0.399-0.5,0.8-0.601c0.3-0.1,0.6,0,1,0.2c0.1,0.1,0.3,0.2,0.4,0.4
			C103.8,49.9,103.9,49.9,103.9,50C104,50,104,50,104,50s0.1,0,0.1-0.101L104.2,50l-0.7,1.1l-0.2-0.1c0.1-0.3,0.1-0.601,0.1-0.8
			c0-0.2-0.199-0.4-0.399-0.601c-0.2-0.1-0.3-0.1-0.4-0.1c-0.1,0-0.2,0.1-0.3,0.2c-0.1,0.1-0.1,0.199-0.1,0.3
			c0,0.1,0.1,0.3,0.199,0.5l0.2,0.399c0.2,0.301,0.2,0.5,0.3,0.7c0.101,0.3,0,0.601-0.199,0.9c-0.2,0.3-0.4,0.5-0.801,0.6
			c-0.3,0.101-0.699,0.101-1-0.2c-0.1-0.1-0.199-0.1-0.3-0.199c-0.1-0.101-0.2-0.2-0.3-0.301l-0.1-0.1l-0.101-0.1l0,0H100
			c0,0-0.101,0-0.2,0.1l-0.2-0.1L100.6,51z"/>
	</g>
	<path id="top_arch" fill="none" stroke="#000000" stroke-miterlimit="10" d="M125.4,89.6L104,91.1C99.5,75.4,85.1,64,68,64
		C50.9,64,36.6,75.4,32.1,91.1L10.7,89.6"/>
	<g id="Name">
		<path fill="#981B1E" d="M42,89.1c0.6,0,1.1-0.1,1.3-0.399c0.2-0.2,0.3-0.601,0.3-1V79.4c0-0.5-0.1-0.8-0.3-0.899
			c-0.2-0.101-0.6-0.2-1.2-0.3v-0.4h4.3l3.301,8.1h0.1l3.3-8.1h4.3v0.4c-0.6,0-1,0.199-1.199,0.3C56,78.7,55.9,79.1,55.9,79.8v7.7
			c0,0.6,0.101,1.1,0.301,1.3c0.199,0.2,0.6,0.3,1.199,0.3v0.4h-5.6v-0.4c0.5,0,0.9-0.1,1.1-0.3c0.301-0.2,0.4-0.5,0.4-1v-8.6h-0.1
			L49,89.5h-0.5L44.3,79.4h-0.1v7.9c0,0.6,0.1,1,0.3,1.3S45.2,89,45.9,89V89.4h-4v-0.3H42z"/>
		<path fill="#981B1E" d="M59.1,86c0.7-0.5,1.9-0.9,3.5-1.4v-1.3c0-0.5-0.1-0.9-0.3-1.1c-0.2-0.2-0.6-0.4-1.1-0.4
			C60.9,81.8,60.6,81.9,60.4,82c-0.199,0.1-0.3,0.3-0.3,0.399c0,0.101,0,0.101,0,0.2L60.2,82.7l0.1,0.1c0.1,0.1,0.1,0.2,0.2,0.3
			c0.1,0.101,0.1,0.2,0.1,0.4c0,0.3-0.1,0.6-0.3,0.8s-0.5,0.3-0.7,0.3c-0.3,0-0.6-0.1-0.8-0.3s-0.3-0.5-0.3-0.9
			c0-0.699,0.3-1.199,0.899-1.6c0.601-0.4,1.4-0.6,2.301-0.6c1,0,1.8,0.199,2.399,0.6c0.601,0.4,1,1.1,1,2.1v4.2
			c0,0.101,0,0.2,0.101,0.3C65.3,88.5,65.3,88.5,65.4,88.5c0.101,0,0.101,0,0.2,0c0.101,0,0.101-0.101,0.2-0.2l0.3,0.4
			C65.8,89.1,65.4,89.4,65,89.5c-0.3,0.1-0.5,0.2-0.8,0.2c-0.5,0-0.9-0.2-1.101-0.5C63,89,62.9,88.8,62.8,88.4
			c-0.5,0.5-1,0.801-1.6,1c-0.4,0.101-0.7,0.2-1.101,0.2c-0.5,0-0.899-0.2-1.3-0.5C58.2,89,58,88.5,58,87.9
			C58,87.1,58.4,86.5,59.1,86z M62.1,88.3c0.101-0.1,0.3-0.3,0.5-0.5v-2.6c-0.5,0.1-0.899,0.3-1.2,0.5
			C60.8,86.1,60.5,86.6,60.5,87.3c0,0.4,0.1,0.7,0.3,0.9c0.2,0.199,0.4,0.3,0.6,0.3C61.6,88.5,61.8,88.4,62.1,88.3z"/>
		<path fill="#981B1E" d="M66.1,89.1c0.3,0,0.601-0.1,0.7-0.2C66.9,88.8,67,88.5,67,88.2v-0.5V82.9c0-0.399-0.101-0.6-0.2-0.8
			c-0.1-0.1-0.4-0.2-0.7-0.3v-0.4h3.2v1.4c0.4-0.5,0.7-0.9,1.1-1.2c0.4-0.3,0.801-0.399,1.2-0.399c0.3,0,0.7,0.1,0.9,0.3
			c0.3,0.2,0.399,0.6,0.399,1c0,0.3-0.1,0.6-0.3,0.8s-0.5,0.3-0.8,0.3c-0.4,0-0.7-0.2-0.9-0.5c-0.199-0.3-0.399-0.5-0.6-0.5
			S69.8,82.7,69.6,83s-0.3,0.7-0.3,1.2v3.3c0,0.6,0.1,0.899,0.2,1.1c0.2,0.101,0.5,0.2,1,0.3v0.4H66v-0.2H66.1z"/>
		<path fill="#981B1E" d="M73.4,89.1C73.7,89,73.9,89,74,88.9c0.2-0.199,0.2-0.399,0.2-0.8V83c0-0.4-0.101-0.601-0.2-0.7
			c0-0.3-0.3-0.3-0.601-0.4V81.5H76.7v6.7c0,0.399,0.1,0.6,0.199,0.699C77,89,77.2,89.1,77.5,89.2V89.6H73.4V89.1z M74.5,77.8
			c0.3-0.3,0.6-0.4,0.899-0.4c0.4,0,0.7,0.101,0.9,0.4c0.3,0.3,0.4,0.6,0.4,1s-0.101,0.7-0.4,1s-0.6,0.4-0.9,0.4
			C75,80.2,74.7,80.1,74.5,79.8c-0.3-0.3-0.4-0.6-0.4-1S74.3,78.1,74.5,77.8z"/>
		<path fill="#981B1E" d="M77.9,89.1c0.301,0,0.5-0.1,0.7-0.3s0.2-0.4,0.2-0.8V82.9c0-0.399-0.1-0.6-0.2-0.699
			C78.5,82.1,78.2,82,77.9,81.9V81.5h3.2v1.3c0.3-0.4,0.601-0.8,1-1c0.4-0.3,0.9-0.4,1.4-0.4c0.7,0,1.3,0.2,1.7,0.601
			c0.399,0.399,0.6,1.1,0.6,2v4.2c0,0.399,0.1,0.6,0.2,0.8c0.1,0.1,0.3,0.2,0.7,0.2V89.6h-4V89.2C83,89.1,83.2,89.1,83.3,88.9
			c0.1-0.1,0.2-0.399,0.2-0.699V84c0-0.4,0-0.7-0.101-0.9C83.3,82.7,83,82.6,82.6,82.6c-0.3,0-0.6,0.101-0.8,0.3
			c-0.2,0.2-0.4,0.4-0.6,0.7v4.7c0,0.4,0.1,0.6,0.199,0.7C81.5,89.1,81.7,89.2,82,89.3v0.4H77.9V89.1L77.9,89.1z"/>
		<path fill="#981B1E" d="M88.2,82.4c0.699-0.699,1.5-1.1,2.5-1.1c0.6,0,1.1,0.2,1.6,0.5s0.9,0.7,1.1,1.3
			c0.2,0.4,0.301,0.9,0.4,1.601c0,0.3,0.1,0.5,0.1,0.699h-4.3c0,0.7,0.2,1.301,0.3,1.801c0.301,1,0.9,1.399,1.801,1.399
			c0.399,0,0.8-0.1,1.1-0.399c0.2-0.2,0.5-0.4,0.8-0.801l0.4,0.2c-0.5,0.9-1.101,1.5-1.8,1.9c-0.4,0.2-1,0.3-1.5,0.3
			c-0.801,0-1.601-0.3-2.4-1c-0.7-0.7-1.1-1.8-1.1-3.2C87.2,84.2,87.5,83.1,88.2,82.4z M91.8,84.6c0-1-0.1-1.8-0.2-2.2
			C91.5,82,91.2,81.8,90.7,81.8c-0.4,0-0.7,0.2-0.9,0.7s-0.3,1.2-0.3,2.1H91.8z"/>
		<path fill="#981B1E" d="M35.6,105.1c0.5,0,0.8-0.1,1-0.2c0.3-0.199,0.5-0.5,0.5-1v-8.5c0-0.5-0.1-0.8-0.399-1
			c-0.2-0.1-0.5-0.199-1-0.199v-0.4h5.8v0.4c-0.5,0-0.8,0.1-1,0.199c-0.3,0.2-0.5,0.5-0.5,1V99h4.1V95.4c0-0.5-0.2-0.8-0.5-1
			c-0.2-0.1-0.5-0.199-1.1-0.199v-0.4h5.8v0.4c-0.5,0-0.8,0.1-1,0.199c-0.3,0.2-0.5,0.5-0.5,1v8.5c0,0.5,0.2,0.9,0.5,1
			c0.2,0.101,0.5,0.2,1,0.2v0.4h-5.8v-0.4c0.5,0,0.8-0.1,1-0.2c0.3-0.199,0.5-0.5,0.5-1v-4H39.9v4c0,0.5,0.2,0.9,0.5,1.101
			c0.2,0.1,0.5,0.2,1,0.2v0.399h-5.8V105.1z"/>
		<path fill="#981B1E" d="M50.2,98.4c0.699-0.699,1.5-1.1,2.5-1.1c0.6,0,1.1,0.2,1.6,0.5s0.9,0.7,1.1,1.3
			c0.2,0.4,0.301,0.9,0.4,1.601c0,0.3,0.1,0.5,0.1,0.699h-4.3c0,0.7,0.2,1.301,0.3,1.801c0.301,1,0.9,1.399,1.801,1.399
			c0.399,0,0.8-0.1,1.1-0.399c0.2-0.2,0.5-0.4,0.8-0.801l0.4,0.2c-0.5,0.9-1.101,1.5-1.8,1.9c-0.4,0.2-1,0.3-1.5,0.3
			c-0.801,0-1.601-0.3-2.4-1c-0.7-0.7-1.1-1.8-1.1-3.2C49.2,100.2,49.5,99.1,50.2,98.4z M53.8,100.6c0-1-0.1-1.8-0.2-2.2
			C53.5,98,53.2,97.8,52.7,97.8c-0.4,0-0.7,0.2-0.9,0.7s-0.3,1.2-0.3,2.1H53.8z"/>
		<path fill="#981B1E" d="M57,105.1c0.3,0,0.6-0.1,0.7-0.2c0.1-0.1,0.199-0.399,0.199-0.699v-0.5V98.9c0-0.399-0.1-0.6-0.199-0.8
			C57.6,98,57.3,97.9,57,97.8v-0.4h3.2v1.4c0.399-0.5,0.699-0.9,1.1-1.2s0.8-0.399,1.2-0.399c0.3,0,0.7,0.1,0.899,0.3
			c0.301,0.2,0.4,0.6,0.4,1c0,0.3-0.1,0.6-0.3,0.8s-0.5,0.3-0.8,0.3c-0.4,0-0.7-0.2-0.9-0.5s-0.4-0.5-0.6-0.5
			c-0.2,0-0.5,0.101-0.7,0.4s-0.3,0.7-0.3,1.2v3.3c0,0.6,0.1,0.899,0.199,1.1c0.2,0.101,0.5,0.2,1,0.3v0.4H57V105.1z"/>
		<path fill="#981B1E" d="M64.9,105.1c0.301-0.1,0.5-0.1,0.601-0.2c0.2-0.199,0.2-0.399,0.2-0.8V99c0-0.4-0.101-0.601-0.2-0.7
			c-0.101-0.1-0.3-0.2-0.7-0.3v-0.4h3.3v6.7c0,0.4,0.101,0.6,0.2,0.7c0.1,0.1,0.3,0.2,0.6,0.3v0.4h-4V105.1z M66,93.8
			c0.3-0.3,0.6-0.4,0.899-0.4c0.4,0,0.7,0.101,0.9,0.4c0.3,0.3,0.4,0.6,0.4,1s-0.101,0.7-0.4,1s-0.6,0.4-0.9,0.4
			C66.5,96.2,66.2,96.1,66,95.8c-0.3-0.3-0.4-0.6-0.4-1S65.7,94.1,66,93.8z"/>
		<path fill="#981B1E" d="M69.9,98.2v-0.5C70,97.6,70.2,97.4,70.5,97.2c0.3-0.301,0.6-0.601,0.8-0.9c0.5-0.6,1-1.2,1.4-1.9H73.1v3
			H74.7V98.2H73.1v5.3c0,0.2,0,0.5,0.101,0.6c0.1,0.3,0.3,0.4,0.5,0.4c0.199,0,0.399-0.101,0.6-0.2s0.3-0.4,0.4-0.7l0.399,0.2
			c-0.2,0.5-0.399,0.9-0.7,1.2c-0.5,0.5-1.1,0.8-1.8,0.8c-0.399,0-0.7-0.1-1-0.2c-0.6-0.3-0.899-0.8-0.899-1.6v-5.7H69.9V98.2z"/>
		<path fill="#981B1E" d="M77.2,102c0.699-0.5,1.899-0.9,3.5-1.4v-1.3c0-0.5-0.101-0.9-0.301-1.1c-0.199-0.2-0.6-0.4-1.1-0.4
			c-0.3,0-0.6,0.1-0.8,0.2c-0.2,0.1-0.3,0.3-0.3,0.399c0,0.101,0,0.101,0,0.2l0.1,0.101l0.1,0.1c0.101,0.1,0.101,0.2,0.2,0.3
			C78.7,99.2,78.7,99.3,78.7,99.5c0,0.3-0.101,0.6-0.301,0.8c-0.199,0.2-0.5,0.3-0.699,0.3c-0.301,0-0.601-0.1-0.801-0.3
			c-0.199-0.2-0.3-0.5-0.3-0.9c0-0.699,0.3-1.199,0.9-1.6c0.6-0.4,1.399-0.6,2.3-0.6c1,0,1.8,0.199,2.4,0.6c0.6,0.4,1,1.1,1,2.1v4.2
			c0,0.101,0,0.2,0.1,0.3c0.1,0.101,0.1,0.101,0.2,0.101c0.1,0,0.1,0,0.2,0c0.1,0,0.1-0.101,0.199-0.2l0.301,0.4
			c-0.301,0.399-0.7,0.699-1.101,0.8c-0.3,0.1-0.5,0.2-0.8,0.2c-0.5,0-0.9-0.2-1.1-0.5C81.1,105,81,104.8,80.9,104.4
			c-0.5,0.5-1,0.801-1.6,1c-0.4,0.101-0.7,0.2-1.1,0.2c-0.5,0-0.9-0.2-1.301-0.5c-0.399-0.3-0.6-0.8-0.6-1.399
			C76.1,103.1,76.4,102.5,77.2,102z M80.1,104.3c0.101-0.1,0.3-0.3,0.5-0.5v-2.6c-0.5,0.1-0.899,0.3-1.2,0.5
			c-0.6,0.399-0.899,0.899-0.899,1.6c0,0.4,0.1,0.7,0.3,0.9c0.2,0.199,0.4,0.3,0.6,0.3C79.6,104.5,79.9,104.4,80.1,104.3z"/>
		<path fill="#981B1E" d="M85.2,106.8c0.199-0.3,0.6-0.4,1-0.5v-0.1c-0.301-0.101-0.601-0.301-0.7-0.4c-0.3-0.2-0.4-0.6-0.4-1
			c0-0.5,0.2-0.9,0.601-1.3c0.399-0.3,0.8-0.601,1.199-0.7v-0.1c-0.6-0.2-1-0.601-1.399-1c-0.4-0.4-0.5-1-0.5-1.601
			c0-0.8,0.3-1.5,0.899-2c0.601-0.5,1.5-0.8,2.5-0.8c0.4,0,0.801,0,1.101,0.1c0.3,0.101,0.6,0.2,0.8,0.2h2.2v0.9h-1.4
			c0.2,0.2,0.4,0.5,0.5,0.8c0.101,0.3,0.2,0.6,0.2,1c0,1.1-0.5,1.8-1.5,2.2c-0.5,0.2-1.2,0.3-2,0.3c-0.2,0-0.3,0-0.3,0
			c-0.101,0-0.101,0-0.2,0c-0.2,0-0.3,0.1-0.5,0.3S87,103.5,87,103.7c0,0.199,0,0.3,0.1,0.399c0.101,0.101,0.2,0.2,0.4,0.2
			c0.1,0,0.3,0,0.5,0c0.3,0,0.5,0,0.6,0H89.7c0.6,0,1.199,0.1,1.6,0.3c0.8,0.3,1.2,1,1.2,1.8c0,1.101-0.601,1.9-1.8,2.4
			c-0.601,0.2-1.5,0.3-2.4,0.3c-0.8,0-1.5-0.1-2.1-0.2c-1-0.3-1.4-0.699-1.4-1.399C84.9,107.3,85,107,85.2,106.8z M86.9,108.3
			c0.4,0.2,0.9,0.3,1.601,0.3c0.6,0,1.2-0.1,1.6-0.2c0.8-0.199,1.2-0.6,1.2-1.1c0-0.3-0.1-0.5-0.3-0.7s-0.601-0.2-1.2-0.2H87
			c-0.2,0.101-0.3,0.301-0.4,0.4c-0.1,0.2-0.2,0.4-0.2,0.6C86.4,107.8,86.6,108.1,86.9,108.3z M87.5,101.6c0.2,0.5,0.5,0.8,1,0.8
			c0.399,0,0.7-0.199,0.899-0.6c0.2-0.4,0.2-0.9,0.2-1.7s-0.1-1.399-0.3-1.7c-0.2-0.399-0.5-0.5-0.9-0.5
			C88,97.9,87.7,98.1,87.5,98.5c-0.101,0.399-0.2,0.899-0.2,1.7C87.4,100.8,87.4,101.3,87.5,101.6z"/>
		<path fill="#981B1E" d="M94.7,98.4c0.699-0.699,1.5-1.1,2.5-1.1c0.6,0,1.1,0.2,1.6,0.5s0.9,0.7,1.1,1.3
			c0.2,0.4,0.301,0.9,0.4,1.601c0,0.3,0.1,0.5,0.1,0.699h-4.3c0,0.7,0.101,1.301,0.3,1.801c0.301,1,0.9,1.399,1.801,1.399
			c0.399,0,0.8-0.1,1.1-0.399c0.2-0.2,0.5-0.4,0.8-0.801l0.4,0.2c-0.5,0.9-1.101,1.5-1.8,1.9c-0.4,0.2-1,0.3-1.5,0.3
			c-0.801,0-1.601-0.3-2.4-1c-0.7-0.7-1.1-1.8-1.1-3.2C93.7,100.2,94,99.1,94.7,98.4z M98.4,100.6c0-1-0.1-1.8-0.199-2.2
			C98.1,98,97.8,97.8,97.3,97.8c-0.4,0-0.7,0.2-0.9,0.7c-0.199,0.5-0.3,1.2-0.3,2.1H98.4z"/>
		<path fill="#981B1E" d="M43.5,117.4H44c0.3,1.301,0.7,2.301,1.3,2.9s1.3,0.9,2.1,0.9C48.2,121.2,48.7,121,49,120.6
			c0.3-0.399,0.5-0.8,0.5-1.3s-0.2-1-0.5-1.3c-0.2-0.2-0.7-0.5-1.3-0.8L46.6,116.6c-1.1-0.6-1.8-1.1-2.3-1.7
			c-0.4-0.5-0.7-1.199-0.7-2c0-0.899,0.3-1.699,0.9-2.399c0.6-0.7,1.5-1.101,2.7-1.101c0.6,0,1.199,0.101,1.8,0.301
			c0.6,0.199,0.899,0.3,1,0.3c0.2,0,0.3-0.101,0.399-0.2c0.101-0.1,0.101-0.3,0.2-0.4H51v3.801h-0.5c-0.2-0.9-0.601-1.601-1.2-2.301
			c-0.6-0.6-1.2-1-2-1c-0.6,0-1,0.2-1.3,0.5c-0.3,0.301-0.5,0.7-0.5,1.2c0,0.601,0.2,1,0.5,1.2c0.3,0.3,1,0.7,2,1.2l1.3,0.7
			c0.6,0.3,1,0.6,1.3,1c0.601,0.699,0.9,1.5,0.9,2.399c0,0.9-0.3,1.7-1,2.5s-1.7,1.2-3.2,1.2c-0.3,0-0.7,0-1-0.1
			c-0.3-0.101-0.7-0.2-1-0.301l-0.3-0.1c-0.101,0-0.101,0-0.2-0.1c-0.1,0-0.1,0-0.2,0c-0.2,0-0.3,0.1-0.399,0.199
			C44.1,121.5,44.1,121.7,44,121.8h-0.5V117.4z"/>
		<path fill="#981B1E" d="M53.5,114.5c0.7-0.8,1.6-1.2,2.7-1.2c1.1,0,2,0.4,2.8,1.2c0.7,0.8,1.1,1.8,1.1,3s-0.399,2.2-1.1,3
			s-1.601,1.3-2.8,1.3c-1.101,0-2-0.4-2.7-1.2s-1.101-1.8-1.101-3C52.4,116.3,52.8,115.3,53.5,114.5z M55.1,120.1
			c0.2,0.8,0.601,1.101,1.2,1.101c0.5,0,0.9-0.301,1.1-0.9c0.2-0.6,0.301-1.5,0.301-2.8s-0.101-2.2-0.301-2.8
			c-0.199-0.601-0.5-0.9-1.1-0.9s-1,0.4-1.2,1.1c-0.1,0.5-0.2,1.4-0.2,2.601S55,119.6,55.1,120.1z"/>
		<path fill="#981B1E" d="M66.5,113.8c0.5,0.4,0.8,0.8,0.8,1.4c0,0.3-0.1,0.6-0.3,0.8s-0.5,0.3-0.8,0.3c-0.2,0-0.4-0.1-0.601-0.2
			c-0.3-0.2-0.5-0.5-0.5-1c0-0.1,0-0.1,0-0.2c0-0.1,0-0.199,0-0.3c0-0.3-0.1-0.5-0.2-0.6c-0.1-0.101-0.3-0.2-0.5-0.2
			c-0.5,0-0.899,0.3-1.1,0.9c-0.2,0.6-0.3,1.3-0.3,2c0,1.1,0.2,2,0.6,2.8c0.4,0.7,1,1.1,1.7,1.1c0.4,0,0.8-0.1,1.1-0.3
			c0.2-0.1,0.4-0.3,0.7-0.7l0.3,0.3C66.8,120.7,66.2,121.2,65.5,121.5c-0.4,0.2-0.8,0.2-1.3,0.2c-1.101,0-2-0.4-2.7-1.2
			s-1-1.8-1-2.9c0-1.2,0.399-2.3,1.1-3.1c0.7-0.9,1.7-1.3,2.9-1.3C65.4,113.2,66,113.4,66.5,113.8z"/>
		<path fill="#981B1E" d="M67.9,121.1c0.301-0.1,0.5-0.1,0.601-0.2c0.2-0.199,0.2-0.399,0.2-0.8V115c0-0.4-0.101-0.601-0.2-0.7
			c-0.101-0.1-0.3-0.2-0.7-0.3v-0.4h3.3v6.7c0,0.4,0.101,0.6,0.2,0.7c0.1,0.1,0.3,0.2,0.6,0.3v0.4h-4.1V121.1H67.9z M69,109.8
			c0.3-0.3,0.6-0.4,0.899-0.4c0.4,0,0.7,0.101,0.9,0.4c0.3,0.3,0.4,0.6,0.4,1s-0.101,0.7-0.4,1s-0.6,0.4-0.9,0.4
			c-0.399,0-0.699-0.101-0.899-0.4c-0.3-0.3-0.4-0.6-0.4-1S68.7,110.1,69,109.8z"/>
		<path fill="#981B1E" d="M73.5,114.4c0.7-0.699,1.5-1.1,2.5-1.1c0.6,0,1.1,0.2,1.6,0.5s0.9,0.7,1.101,1.3
			C78.9,115.5,79,116,79.1,116.7c0,0.3,0.101,0.5,0.101,0.699H74.9c0,0.7,0.2,1.301,0.301,1.801c0.3,1,0.899,1.399,1.8,1.399
			c0.399,0,0.8-0.1,1.1-0.399c0.2-0.2,0.5-0.4,0.8-0.801l0.4,0.2c-0.5,0.9-1.1,1.5-1.8,1.9c-0.4,0.2-1,0.3-1.5,0.3
			c-0.8,0-1.601-0.3-2.4-1c-0.7-0.7-1.1-1.8-1.1-3.2C72.4,116.2,72.8,115.1,73.5,114.4z M77.1,116.6c0-1-0.1-1.8-0.2-2.2
			C76.8,114,76.5,113.8,76,113.8c-0.4,0-0.7,0.2-0.9,0.7s-0.3,1.2-0.3,2.1H77.1z"/>
		<path fill="#981B1E" d="M79.6,114.2v-0.5c0.101-0.101,0.3-0.301,0.601-0.5c0.3-0.301,0.6-0.601,0.8-0.9c0.5-0.6,1-1.2,1.399-1.9
			h0.4v3h1.6v0.801h-1.6v5.3c0,0.2,0,0.5,0.1,0.6c0.101,0.3,0.301,0.4,0.5,0.4c0.2,0,0.4-0.101,0.601-0.2s0.3-0.4,0.399-0.7l0.4,0.2
			c-0.2,0.5-0.4,0.9-0.7,1.2c-0.5,0.5-1.1,0.8-1.8,0.8c-0.4,0-0.7-0.1-1-0.2c-0.6-0.3-0.9-0.8-0.9-1.6v-5.7h-0.8V114.2z"/>
		<path fill="#981B1E" d="M85.1,122.9c0.2-0.199,0.5-0.3,0.9-0.3c0.3,0,0.5,0.101,0.7,0.2c0.199,0.2,0.3,0.4,0.3,0.6v0.4
			c0,0.1,0,0.1,0.1,0.2c0.101,0.1,0.101,0.1,0.2,0.1c0.3,0,0.6-0.2,0.8-0.7c0.2-0.3,0.4-0.899,0.7-1.699l-2-5.101
			c-0.1-0.399-0.3-0.7-0.4-1c-0.1-0.3-0.3-0.6-0.399-0.899c-0.2-0.301-0.3-0.5-0.4-0.601c-0.1-0.1-0.2-0.1-0.5-0.2V113.5h4.2v0.399
			c-0.3,0-0.5,0-0.7,0.101c-0.2,0.1-0.3,0.2-0.3,0.399c0,0,0,0.101,0,0.2c0,0.101,0.1,0.2,0.1,0.4l1.4,3.399H90l1.1-3.1
			c0.101-0.2,0.101-0.3,0.101-0.4c0-0.1,0.1-0.199,0.1-0.3c0-0.2-0.1-0.399-0.2-0.5c-0.2-0.1-0.399-0.1-0.7-0.1v-0.4H93v0.4
			c-0.2,0-0.4,0.1-0.5,0.2c-0.101,0.1-0.3,0.399-0.4,0.8l-2.5,7c-0.5,1.3-0.899,2.2-1.3,2.6c-0.4,0.5-0.9,0.7-1.7,0.7
			c-0.6,0-1-0.1-1.3-0.4c-0.3-0.3-0.4-0.6-0.4-0.899C84.8,123.4,84.9,123.1,85.1,122.9z"/>
	</g>
</g>
<g id="text">
	<g>
		<path fill="#475A84" d="M162.709,65.179v6.888h-0.572c-0.43-1.798-1.23-3.176-2.402-4.133c-1.173-0.957-2.501-1.436-3.986-1.436
			c-1.24,0-2.379,0.357-3.414,1.07c-1.035,0.713-1.793,1.647-2.271,2.799c-0.615,1.475-0.923,3.117-0.923,4.924
			c0,1.778,0.225,3.397,0.674,4.857c0.449,1.461,1.152,2.564,2.11,3.312c0.957,0.748,2.198,1.121,3.722,1.121
			c1.251,0,2.396-0.273,3.437-0.82s2.137-1.49,3.29-2.828v1.714c-1.114,1.163-2.274,2.006-3.48,2.528
			c-1.207,0.522-2.616,0.784-4.228,0.784c-2.12,0-4.003-0.425-5.649-1.275c-1.646-0.85-2.916-2.07-3.81-3.663
			c-0.894-1.592-1.341-3.287-1.341-5.085c0-1.895,0.496-3.692,1.487-5.393s2.33-3.019,4.015-3.957
			c1.686-0.938,3.476-1.407,5.371-1.407c1.396,0,2.872,0.303,4.425,0.909c0.899,0.352,1.471,0.527,1.715,0.527
			c0.312,0,0.584-0.115,0.813-0.344s0.378-0.593,0.446-1.092H162.709z"/>
		<path fill="#475A84" d="M170.959,65.634v7.928c0.752-0.792,1.44-1.351,2.065-1.678c0.626-0.327,1.275-0.491,1.949-0.491
			c0.859,0,1.595,0.244,2.205,0.733c0.61,0.488,1.017,1.062,1.217,1.722c0.2,0.659,0.3,1.771,0.3,3.333v5.348
			c0,1.046,0.098,1.698,0.293,1.957s0.592,0.422,1.188,0.49v0.528h-6.946v-0.528c0.489-0.068,0.855-0.264,1.1-0.586
			c0.176-0.254,0.264-0.874,0.264-1.861v-6.11c0-1.133-0.044-1.844-0.132-2.132s-0.237-0.513-0.447-0.674s-0.447-0.242-0.711-0.242
			c-0.391,0-0.771,0.135-1.143,0.403s-0.771,0.74-1.201,1.414v7.341c0,0.978,0.073,1.588,0.22,1.832
			c0.186,0.332,0.566,0.537,1.143,0.615v0.528h-6.945v-0.528c0.576-0.059,0.986-0.244,1.23-0.557
			c0.166-0.215,0.249-0.845,0.249-1.891V68.609c0-1.036-0.095-1.68-0.286-1.935c-0.19-0.254-0.588-0.42-1.193-0.498v-0.542H170.959z
			"/>
		<path fill="#475A84" d="M189.613,83.483c-1.67,1.475-3.17,2.213-4.498,2.213c-0.782,0-1.432-0.257-1.949-0.77
			s-0.776-1.155-0.776-1.927c0-1.046,0.449-1.986,1.348-2.821s2.857-1.946,5.876-3.333v-1.377c0-1.036-0.056-1.688-0.168-1.956
			c-0.112-0.269-0.325-0.503-0.638-0.704s-0.664-0.3-1.056-0.3c-0.635,0-1.157,0.142-1.567,0.425
			c-0.254,0.176-0.381,0.381-0.381,0.616c0,0.205,0.137,0.459,0.41,0.762c0.371,0.42,0.557,0.826,0.557,1.216
			c0,0.479-0.178,0.887-0.535,1.224c-0.356,0.337-0.822,0.505-1.399,0.505c-0.615,0-1.13-0.186-1.546-0.557
			c-0.415-0.371-0.622-0.806-0.622-1.304c0-0.704,0.278-1.375,0.835-2.015c0.557-0.64,1.333-1.131,2.33-1.473
			c0.996-0.342,2.032-0.513,3.106-0.513c1.299,0,2.327,0.276,3.084,0.828c0.758,0.552,1.248,1.15,1.474,1.795
			c0.137,0.41,0.205,1.353,0.205,2.828v5.319c0,0.626,0.024,1.019,0.073,1.18s0.122,0.281,0.22,0.359s0.21,0.117,0.337,0.117
			c0.254,0,0.513-0.181,0.776-0.542l0.439,0.352c-0.488,0.723-0.994,1.248-1.517,1.575s-1.116,0.491-1.78,0.491
			c-0.781,0-1.392-0.184-1.832-0.55C189.979,84.78,189.71,84.225,189.613,83.483z M189.613,82.412v-4.586
			c-1.182,0.693-2.062,1.436-2.638,2.227c-0.381,0.528-0.571,1.06-0.571,1.597c0,0.449,0.161,0.845,0.483,1.188
			c0.244,0.264,0.586,0.396,1.026,0.396C188.402,83.234,188.968,82.96,189.613,82.412z"/>
		<path fill="#475A84" d="M202.655,71.803v1.773c0.703-0.762,1.377-1.316,2.021-1.664c0.646-0.347,1.339-0.52,2.081-0.52
			c0.89,0,1.627,0.247,2.213,0.74c0.586,0.493,0.977,1.106,1.172,1.839c0.156,0.557,0.234,1.626,0.234,3.209v5.333
			c0,1.056,0.096,1.713,0.286,1.972s0.589,0.422,1.194,0.49v0.528h-6.931v-0.528c0.518-0.068,0.889-0.283,1.113-0.645
			c0.156-0.244,0.234-0.85,0.234-1.817V76.42c0-1.124-0.044-1.832-0.132-2.125s-0.237-0.52-0.447-0.681s-0.441-0.242-0.695-0.242
			c-0.841,0-1.622,0.601-2.345,1.803v7.341c0,1.026,0.095,1.676,0.285,1.949s0.545,0.444,1.062,0.513v0.528h-6.931v-0.528
			c0.576-0.059,0.986-0.244,1.23-0.557c0.166-0.215,0.249-0.85,0.249-1.905v-7.736c0-1.036-0.095-1.681-0.285-1.935
			s-0.589-0.42-1.194-0.498v-0.542H202.655z"/>
		<path fill="#475A84" d="M219.184,66.792v5.012h3.253v1.451h-3.253v8.455c0,0.791,0.036,1.302,0.109,1.531s0.203,0.415,0.389,0.557
			s0.356,0.213,0.513,0.213c0.635,0,1.235-0.483,1.803-1.451l0.439,0.323c-0.792,1.875-2.076,2.813-3.854,2.813
			c-0.869,0-1.604-0.242-2.205-0.726s-0.984-1.023-1.15-1.619c-0.098-0.332-0.146-1.231-0.146-2.696v-7.4h-1.787v-0.513
			c1.23-0.87,2.278-1.783,3.143-2.74s1.619-2.028,2.264-3.209H219.184z"/>
		<path fill="#475A84" d="M229.426,71.803v3.107c0.909-1.417,1.705-2.357,2.389-2.821c0.684-0.464,1.344-0.696,1.979-0.696
			c0.547,0,0.984,0.168,1.312,0.505c0.327,0.337,0.49,0.813,0.49,1.429c0,0.655-0.158,1.163-0.476,1.524
			c-0.317,0.361-0.701,0.542-1.15,0.542c-0.518,0-0.968-0.166-1.349-0.498c-0.381-0.333-0.605-0.518-0.674-0.557
			c-0.098-0.059-0.21-0.088-0.337-0.088c-0.283,0-0.552,0.107-0.806,0.322c-0.4,0.333-0.704,0.806-0.909,1.421
			c-0.312,0.948-0.469,1.993-0.469,3.136v3.15l0.015,0.821c0,0.557,0.034,0.913,0.103,1.069c0.117,0.264,0.291,0.457,0.521,0.579
			s0.618,0.197,1.165,0.227v0.528h-7.4v-0.528c0.596-0.049,0.999-0.212,1.209-0.49s0.315-1.014,0.315-2.206v-7.576
			c0-0.781-0.039-1.28-0.117-1.495c-0.098-0.273-0.239-0.474-0.425-0.601s-0.514-0.215-0.982-0.264v-0.542H229.426z"/>
		<path fill="#475A84" d="M243.347,86.062l-4.425-10.155c-0.665-1.534-1.155-2.477-1.473-2.828c-0.318-0.352-0.701-0.596-1.15-0.732
			v-0.542h7.282v0.542c-0.479,0.02-0.815,0.112-1.011,0.278s-0.293,0.366-0.293,0.601c0,0.372,0.244,1.104,0.732,2.198l2.345,5.363
			l1.597-4.147c0.577-1.475,0.865-2.501,0.865-3.077c0-0.362-0.12-0.65-0.359-0.865s-0.662-0.332-1.268-0.352v-0.542h4.587v0.542
			c-0.449,0.049-0.816,0.222-1.1,0.52s-0.757,1.312-1.421,3.041l-3.913,10.155c-0.986,2.54-1.719,4.103-2.197,4.688
			c-0.675,0.821-1.52,1.231-2.535,1.231c-0.811,0-1.468-0.232-1.971-0.696c-0.504-0.464-0.755-1.023-0.755-1.678
			c0-0.566,0.173-1.035,0.521-1.407c0.347-0.371,0.773-0.557,1.281-0.557c0.489,0,0.882,0.156,1.18,0.469
			c0.299,0.313,0.452,0.797,0.462,1.451c0.01,0.371,0.054,0.61,0.132,0.718s0.19,0.161,0.337,0.161c0.234,0,0.483-0.142,0.747-0.425
			c0.392-0.41,0.851-1.348,1.378-2.813L243.347,86.062z"/>
		<path fill="#475A84" d="M269.547,84.962v0.543h-10.389v-0.543h0.659c0.576,0,1.04-0.103,1.392-0.308
			c0.255-0.137,0.45-0.371,0.587-0.703c0.107-0.234,0.161-0.85,0.161-1.847V69.034c0-1.017-0.054-1.651-0.161-1.905
			s-0.325-0.476-0.652-0.667c-0.327-0.19-0.77-0.286-1.326-0.286h-0.659v-0.542h10.389v0.542h-0.659
			c-0.576,0-1.04,0.103-1.392,0.308c-0.254,0.137-0.455,0.372-0.602,0.704c-0.107,0.234-0.161,0.85-0.161,1.847v13.071
			c0,1.017,0.057,1.651,0.169,1.905s0.332,0.477,0.659,0.667s0.77,0.285,1.326,0.285H269.547z"/>
		<path fill="#475A84" d="M279.907,71.423l0.22,4.674h-0.498c-0.596-1.387-1.214-2.334-1.854-2.843
			c-0.64-0.508-1.277-0.762-1.912-0.762c-0.401,0-0.743,0.134-1.026,0.403s-0.425,0.579-0.425,0.931
			c0,0.264,0.098,0.518,0.293,0.762c0.312,0.401,1.188,1.087,2.623,2.059c1.437,0.972,2.382,1.797,2.836,2.477
			c0.454,0.679,0.681,1.438,0.681,2.278c0,0.762-0.19,1.51-0.571,2.242s-0.918,1.294-1.611,1.685
			c-0.694,0.392-1.461,0.587-2.301,0.587c-0.655,0-1.529-0.205-2.623-0.616c-0.293-0.107-0.493-0.161-0.601-0.161
			c-0.322,0-0.592,0.244-0.807,0.733h-0.483l-0.234-4.924h0.498c0.44,1.289,1.043,2.257,1.81,2.901
			c0.768,0.645,1.492,0.967,2.177,0.967c0.469,0,0.853-0.144,1.15-0.432s0.446-0.638,0.446-1.048c0-0.469-0.146-0.875-0.439-1.217
			s-0.947-0.859-1.964-1.553c-1.494-1.036-2.462-1.827-2.901-2.374c-0.645-0.801-0.967-1.685-0.967-2.652
			c0-1.055,0.364-2.01,1.092-2.865s1.78-1.282,3.158-1.282c0.742,0,1.46,0.181,2.153,0.542c0.264,0.147,0.479,0.22,0.646,0.22
			c0.176,0,0.317-0.037,0.425-0.11c0.107-0.074,0.278-0.281,0.513-0.623H279.907z"/>
		<path fill="#475A84" d="M288.289,65.634v17.028c0,0.967,0.112,1.585,0.337,1.854s0.664,0.422,1.319,0.461v0.528h-7.4v-0.528
			c0.605-0.02,1.055-0.195,1.349-0.527c0.195-0.225,0.293-0.82,0.293-1.787V68.477c0-0.958-0.113-1.57-0.338-1.839
			c-0.225-0.269-0.659-0.423-1.304-0.462v-0.542H288.289z"/>
		<path fill="#475A84" d="M298.825,83.483c-1.671,1.475-3.17,2.213-4.499,2.213c-0.781,0-1.431-0.257-1.948-0.77
			c-0.519-0.513-0.777-1.155-0.777-1.927c0-1.046,0.449-1.986,1.349-2.821c0.898-0.835,2.857-1.946,5.876-3.333v-1.377
			c0-1.036-0.057-1.688-0.169-1.956c-0.112-0.269-0.325-0.503-0.638-0.704s-0.664-0.3-1.055-0.3c-0.635,0-1.157,0.142-1.568,0.425
			c-0.254,0.176-0.381,0.381-0.381,0.616c0,0.205,0.137,0.459,0.41,0.762c0.372,0.42,0.558,0.826,0.558,1.216
			c0,0.479-0.179,0.887-0.535,1.224s-0.823,0.505-1.399,0.505c-0.615,0-1.131-0.186-1.546-0.557s-0.623-0.806-0.623-1.304
			c0-0.704,0.278-1.375,0.836-2.015c0.557-0.64,1.333-1.131,2.329-1.473c0.997-0.342,2.032-0.513,3.107-0.513
			c1.299,0,2.327,0.276,3.084,0.828c0.757,0.552,1.248,1.15,1.473,1.795c0.137,0.41,0.205,1.353,0.205,2.828v5.319
			c0,0.626,0.024,1.019,0.073,1.18s0.122,0.281,0.22,0.359s0.21,0.117,0.337,0.117c0.255,0,0.514-0.181,0.777-0.542l0.439,0.352
			c-0.488,0.723-0.994,1.248-1.517,1.575s-1.116,0.491-1.78,0.491c-0.782,0-1.393-0.184-1.832-0.55S298.923,84.225,298.825,83.483z
			 M298.825,82.412v-4.586c-1.183,0.693-2.062,1.436-2.638,2.227c-0.381,0.528-0.571,1.06-0.571,1.597
			c0,0.449,0.161,0.845,0.483,1.188c0.244,0.264,0.586,0.396,1.025,0.396C297.614,83.234,298.181,82.96,298.825,82.412z"/>
		<path fill="#475A84" d="M311.866,71.803v1.773c0.704-0.762,1.378-1.316,2.022-1.664c0.645-0.347,1.339-0.52,2.081-0.52
			c0.889,0,1.626,0.247,2.213,0.74c0.586,0.493,0.977,1.106,1.172,1.839c0.156,0.557,0.234,1.626,0.234,3.209v5.333
			c0,1.056,0.096,1.713,0.286,1.972s0.588,0.422,1.194,0.49v0.528h-6.932v-0.528c0.518-0.068,0.889-0.283,1.113-0.645
			c0.157-0.244,0.235-0.85,0.235-1.817V76.42c0-1.124-0.044-1.832-0.132-2.125s-0.237-0.52-0.447-0.681s-0.442-0.242-0.696-0.242
			c-0.84,0-1.621,0.601-2.345,1.803v7.341c0,1.026,0.096,1.676,0.286,1.949s0.545,0.444,1.062,0.513v0.528h-6.932v-0.528
			c0.577-0.059,0.987-0.244,1.231-0.557c0.166-0.215,0.249-0.85,0.249-1.905v-7.736c0-1.036-0.096-1.681-0.286-1.935
			s-0.588-0.42-1.194-0.498v-0.542H311.866z"/>
		<path fill="#475A84" d="M336.28,65.634v15.768c0,1.064,0.029,1.695,0.088,1.891c0.078,0.322,0.228,0.562,0.447,0.718
			s0.603,0.254,1.149,0.293v0.483l-5.787,1.129v-2.169c-0.694,0.84-1.312,1.411-1.854,1.715c-0.542,0.303-1.155,0.454-1.839,0.454
			c-1.748,0-3.131-0.782-4.146-2.345c-0.82-1.271-1.231-2.828-1.231-4.675c0-1.475,0.254-2.796,0.763-3.963
			c0.508-1.167,1.203-2.049,2.088-2.645c0.884-0.596,1.834-0.894,2.85-0.894c0.654,0,1.236,0.127,1.744,0.381
			c0.508,0.254,1.05,0.699,1.627,1.333v-4.133c0-1.045-0.045-1.675-0.133-1.89c-0.117-0.283-0.293-0.494-0.527-0.63
			s-0.674-0.205-1.318-0.205v-0.615H336.28z M332.177,74.925c-0.724-1.387-1.607-2.081-2.652-2.081c-0.362,0-0.66,0.098-0.895,0.293
			c-0.361,0.303-0.656,0.835-0.887,1.597c-0.229,0.762-0.344,1.93-0.344,3.502c0,1.729,0.127,3.009,0.381,3.839
			c0.254,0.831,0.601,1.432,1.04,1.803c0.225,0.186,0.532,0.278,0.924,0.278c0.859,0,1.67-0.674,2.433-2.022V74.925z"/>
		<path fill="#475A84" d="M364.531,65.634v5.378h-0.527c-0.312-1.241-0.659-2.133-1.041-2.675c-0.381-0.542-0.903-0.975-1.567-1.297
			c-0.371-0.176-1.021-0.264-1.949-0.264h-1.479v15.328c0,1.017,0.056,1.651,0.168,1.905s0.332,0.477,0.659,0.667
			c0.328,0.19,0.774,0.285,1.341,0.285h0.66v0.543h-10.404v-0.543h0.659c0.576,0,1.041-0.103,1.393-0.308
			c0.254-0.137,0.454-0.371,0.601-0.703c0.107-0.234,0.161-0.85,0.161-1.847V66.777h-1.437c-1.338,0-2.31,0.283-2.916,0.85
			c-0.85,0.792-1.387,1.92-1.611,3.386h-0.557v-5.378H364.531z"/>
		<path fill="#475A84" d="M370.334,71.393c1.191,0,2.301,0.308,3.326,0.923c1.026,0.615,1.805,1.49,2.337,2.623
			c0.533,1.133,0.799,2.374,0.799,3.722c0,1.944-0.493,3.57-1.479,4.88c-1.192,1.582-2.838,2.374-4.938,2.374
			c-2.062,0-3.648-0.724-4.763-2.169c-1.113-1.446-1.67-3.121-1.67-5.026c0-1.963,0.568-3.675,1.707-5.136
			C366.79,72.124,368.351,71.393,370.334,71.393z M370.393,72.434c-0.498,0-0.926,0.188-1.282,0.564
			c-0.356,0.376-0.591,1.119-0.703,2.228s-0.169,2.65-0.169,4.623c0,1.045,0.068,2.022,0.205,2.931
			c0.107,0.693,0.337,1.221,0.688,1.582c0.353,0.361,0.753,0.542,1.202,0.542c0.439,0,0.806-0.122,1.099-0.366
			c0.381-0.332,0.636-0.796,0.763-1.392c0.195-0.929,0.293-2.804,0.293-5.627c0-1.661-0.093-2.801-0.278-3.421
			s-0.459-1.072-0.821-1.355C371.135,72.536,370.803,72.434,370.393,72.434z"/>
		<path fill="#475A84" d="M392.11,71.803V82.53c0,1.046,0.098,1.698,0.293,1.957s0.591,0.422,1.187,0.49v0.528h-5.583v-1.832
			c-0.654,0.781-1.309,1.351-1.964,1.707c-0.654,0.356-1.387,0.535-2.197,0.535c-0.771,0-1.458-0.237-2.059-0.711
			c-0.602-0.474-1.004-1.028-1.209-1.663s-0.309-1.744-0.309-3.327v-5.436c0-1.036-0.095-1.681-0.285-1.935s-0.589-0.42-1.194-0.498
			v-0.542h5.583v9.364c0,0.977,0.047,1.607,0.139,1.891c0.094,0.283,0.24,0.498,0.44,0.645s0.432,0.22,0.695,0.22
			c0.353,0,0.67-0.093,0.953-0.278c0.391-0.254,0.859-0.767,1.406-1.539v-7.326c0-1.036-0.095-1.681-0.285-1.935
			s-0.589-0.42-1.194-0.498v-0.542H392.11z"/>
		<path fill="#475A84" d="M401.253,71.803v3.107c0.908-1.417,1.705-2.357,2.389-2.821c0.684-0.464,1.343-0.696,1.979-0.696
			c0.547,0,0.983,0.168,1.311,0.505c0.328,0.337,0.491,0.813,0.491,1.429c0,0.655-0.159,1.163-0.477,1.524
			c-0.317,0.361-0.7,0.542-1.149,0.542c-0.519,0-0.968-0.166-1.349-0.498c-0.381-0.333-0.605-0.518-0.674-0.557
			c-0.098-0.059-0.21-0.088-0.337-0.088c-0.283,0-0.553,0.107-0.807,0.322c-0.4,0.333-0.703,0.806-0.908,1.421
			c-0.312,0.948-0.469,1.993-0.469,3.136v3.15l0.015,0.821c0,0.557,0.034,0.913,0.103,1.069c0.117,0.264,0.291,0.457,0.521,0.579
			s0.617,0.197,1.165,0.227v0.528h-7.4v-0.528c0.596-0.049,0.999-0.212,1.209-0.49s0.314-1.014,0.314-2.206v-7.576
			c0-0.781-0.039-1.28-0.117-1.495c-0.098-0.273-0.239-0.474-0.425-0.601s-0.513-0.215-0.981-0.264v-0.542H401.253z"/>
		<path fill="#475A84" d="M417.548,71.423l0.22,4.674h-0.499c-0.596-1.387-1.213-2.334-1.854-2.843
			c-0.64-0.508-1.277-0.762-1.912-0.762c-0.4,0-0.742,0.134-1.025,0.403s-0.425,0.579-0.425,0.931c0,0.264,0.098,0.518,0.293,0.762
			c0.312,0.401,1.187,1.087,2.623,2.059c1.436,0.972,2.381,1.797,2.835,2.477c0.454,0.679,0.682,1.438,0.682,2.278
			c0,0.762-0.19,1.51-0.571,2.242s-0.919,1.294-1.612,1.685c-0.693,0.392-1.46,0.587-2.301,0.587c-0.654,0-1.528-0.205-2.623-0.616
			c-0.293-0.107-0.493-0.161-0.601-0.161c-0.322,0-0.591,0.244-0.806,0.733h-0.483l-0.234-4.924h0.498
			c0.439,1.289,1.043,2.257,1.81,2.901s1.492,0.967,2.176,0.967c0.469,0,0.853-0.144,1.15-0.432s0.447-0.638,0.447-1.048
			c0-0.469-0.146-0.875-0.439-1.217s-0.948-0.859-1.964-1.553c-1.495-1.036-2.462-1.827-2.901-2.374
			c-0.645-0.801-0.967-1.685-0.967-2.652c0-1.055,0.363-2.01,1.092-2.865c0.728-0.855,1.78-1.282,3.157-1.282
			c0.742,0,1.461,0.181,2.154,0.542c0.264,0.147,0.479,0.22,0.645,0.22c0.176,0,0.317-0.037,0.425-0.11
			c0.107-0.074,0.278-0.281,0.514-0.623H417.548z"/>
	</g>
	<g>
		<path fill="#981B1E" d="M159.968,113.23l5.839-14.184h8.758v0.587h-0.698c-0.635,0-1.143,0.111-1.522,0.333
			c-0.265,0.148-0.477,0.396-0.635,0.746c-0.117,0.254-0.175,0.915-0.175,1.983v14.184c0,1.1,0.058,1.787,0.175,2.062
			c0.116,0.275,0.354,0.516,0.714,0.722c0.359,0.206,0.841,0.31,1.443,0.31h0.698v0.587h-11.232v-0.587h0.697
			c0.635,0,1.143-0.111,1.523-0.333c0.265-0.148,0.477-0.402,0.635-0.762c0.116-0.254,0.175-0.92,0.175-1.999v-15.945l-8.25,19.626
			h-0.381l-8.377-19.482v15.151c0,1.058,0.026,1.708,0.079,1.951c0.137,0.529,0.437,0.96,0.896,1.293s1.182,0.5,2.165,0.5v0.587
			h-7.361v-0.587h0.223c0.476,0.011,0.92-0.066,1.332-0.23c0.413-0.163,0.725-0.383,0.937-0.658
			c0.211-0.274,0.375-0.661,0.491-1.158c0.021-0.116,0.032-0.655,0.032-1.618v-13.612c0-1.09-0.059-1.77-0.175-2.039
			s-0.354-0.508-0.714-0.714s-0.841-0.31-1.443-0.31h-0.683v-0.587h8.79L159.968,113.23z"/>
		<path fill="#981B1E" d="M184.433,118.37c-1.809,1.598-3.433,2.396-4.871,2.396c-0.846,0-1.549-0.277-2.109-0.833
			c-0.561-0.555-0.841-1.25-0.841-2.086c0-1.132,0.486-2.149,1.459-3.055c0.974-0.904,3.094-2.107,6.362-3.609v-1.491
			c0-1.121-0.061-1.827-0.183-2.118c-0.121-0.29-0.352-0.544-0.689-0.761c-0.339-0.217-0.72-0.325-1.143-0.325
			c-0.688,0-1.254,0.153-1.698,0.46c-0.274,0.19-0.412,0.412-0.412,0.666c0,0.222,0.148,0.497,0.444,0.825
			c0.401,0.455,0.603,0.894,0.603,1.316c0,0.519-0.192,0.96-0.579,1.325c-0.386,0.364-0.891,0.547-1.515,0.547
			c-0.667,0-1.225-0.2-1.674-0.603c-0.45-0.402-0.675-0.873-0.675-1.412c0-0.762,0.302-1.488,0.904-2.182
			c0.604-0.692,1.444-1.224,2.523-1.595c1.078-0.37,2.199-0.555,3.363-0.555c1.406,0,2.52,0.299,3.34,0.896
			c0.819,0.598,1.351,1.245,1.594,1.943c0.148,0.444,0.223,1.465,0.223,3.062v5.76c0,0.677,0.026,1.103,0.079,1.277
			c0.053,0.174,0.132,0.304,0.238,0.389c0.105,0.085,0.228,0.127,0.364,0.127c0.275,0,0.556-0.196,0.841-0.587l0.477,0.38
			c-0.529,0.783-1.076,1.352-1.643,1.706c-0.565,0.354-1.208,0.531-1.928,0.531c-0.846,0-1.507-0.198-1.982-0.595
			C184.829,119.775,184.538,119.174,184.433,118.37z M184.433,117.212v-4.966c-1.28,0.751-2.231,1.555-2.855,2.411
			c-0.413,0.571-0.619,1.148-0.619,1.729c0,0.487,0.175,0.915,0.523,1.285c0.265,0.286,0.635,0.429,1.111,0.429
			C183.121,118.101,183.735,117.805,184.433,117.212z"/>
		<path fill="#981B1E" d="M198.649,105.726v3.363c0.983-1.533,1.845-2.552,2.586-3.055c0.74-0.502,1.454-0.753,2.142-0.753
			c0.592,0,1.065,0.183,1.42,0.547c0.354,0.365,0.531,0.881,0.531,1.547c0,0.709-0.172,1.259-0.516,1.65s-0.759,0.587-1.245,0.587
			c-0.561,0-1.047-0.18-1.46-0.539c-0.412-0.359-0.655-0.561-0.729-0.604c-0.105-0.063-0.228-0.095-0.365-0.095
			c-0.307,0-0.598,0.116-0.872,0.349c-0.435,0.36-0.762,0.873-0.984,1.539c-0.338,1.026-0.507,2.158-0.507,3.396v3.411l0.016,0.889
			c0,0.603,0.037,0.988,0.111,1.158c0.127,0.285,0.314,0.494,0.562,0.626c0.249,0.133,0.669,0.215,1.262,0.246v0.571h-8.013v-0.571
			c0.646-0.053,1.082-0.229,1.31-0.531s0.341-1.098,0.341-2.388v-8.203c0-0.846-0.042-1.385-0.127-1.618
			c-0.105-0.296-0.259-0.513-0.46-0.65c-0.201-0.137-0.556-0.232-1.063-0.285v-0.587H198.649z"/>
		<path fill="#981B1E" d="M212.705,105.726v11.756c0,1.047,0.121,1.717,0.365,2.007c0.243,0.291,0.719,0.458,1.428,0.5v0.571h-8.013
			v-0.571c0.656-0.021,1.143-0.211,1.46-0.571c0.212-0.243,0.317-0.889,0.317-1.936v-8.662c0-1.048-0.122-1.716-0.365-2.007
			s-0.714-0.458-1.412-0.5v-0.587H212.705z M210.484,98.538c0.688,0,1.27,0.241,1.746,0.722c0.476,0.481,0.714,1.061,0.714,1.737
			c0,0.678-0.241,1.254-0.723,1.729c-0.481,0.477-1.061,0.714-1.737,0.714s-1.253-0.237-1.729-0.714
			c-0.477-0.476-0.715-1.052-0.715-1.729c0-0.677,0.238-1.256,0.715-1.737C209.231,98.78,209.807,98.538,210.484,98.538z"/>
		<path fill="#981B1E" d="M222.002,105.726v1.919c0.762-0.824,1.491-1.425,2.189-1.8c0.698-0.376,1.449-0.563,2.253-0.563
			c0.963,0,1.761,0.267,2.396,0.801s1.058,1.198,1.27,1.991c0.169,0.604,0.254,1.761,0.254,3.475v5.775
			c0,1.142,0.104,1.854,0.31,2.134s0.637,0.457,1.293,0.531v0.571h-7.505v-0.571c0.561-0.074,0.963-0.307,1.206-0.698
			c0.169-0.264,0.254-0.92,0.254-1.967v-6.601c0-1.216-0.048-1.983-0.143-2.3c-0.096-0.317-0.257-0.563-0.484-0.738
			s-0.479-0.262-0.753-0.262c-0.91,0-1.757,0.65-2.539,1.951v7.949c0,1.11,0.104,1.813,0.31,2.11c0.206,0.296,0.59,0.48,1.15,0.555
			v0.571h-7.505v-0.571c0.624-0.063,1.068-0.264,1.333-0.603c0.18-0.232,0.27-0.921,0.27-2.062v-8.377
			c0-1.121-0.103-1.819-0.31-2.095c-0.206-0.274-0.637-0.454-1.293-0.539v-0.587H222.002z"/>
		<path fill="#981B1E" d="M246.578,112.612h-8.139c0.095,1.967,0.618,3.521,1.57,4.664c0.729,0.878,1.607,1.316,2.634,1.316
			c0.635,0,1.211-0.177,1.729-0.531c0.518-0.354,1.073-0.991,1.666-1.911l0.539,0.349c-0.804,1.64-1.692,2.8-2.665,3.482
			c-0.974,0.683-2.1,1.023-3.38,1.023c-2.2,0-3.866-0.846-4.997-2.539c-0.91-1.364-1.365-3.056-1.365-5.076
			c0-2.476,0.669-4.445,2.008-5.91c1.338-1.465,2.905-2.197,4.704-2.197c1.501,0,2.805,0.616,3.91,1.848
			C245.899,108.362,246.493,110.189,246.578,112.612z M242.675,111.548c0-1.703-0.092-2.871-0.277-3.506
			c-0.185-0.635-0.474-1.116-0.864-1.444c-0.223-0.19-0.519-0.285-0.889-0.285c-0.55,0-1,0.27-1.349,0.809
			c-0.624,0.941-0.937,2.232-0.937,3.871v0.556H242.675z"/>
		<path fill="#981B1E" d="M264.348,110.215v6.664c0,1.1,0.061,1.787,0.183,2.062c0.121,0.275,0.359,0.516,0.714,0.722
			s0.833,0.31,1.436,0.31h0.714v0.587h-11.248v-0.587h0.714c0.624,0,1.126-0.111,1.507-0.333c0.275-0.148,0.486-0.402,0.635-0.762
			c0.116-0.254,0.175-0.92,0.175-1.999v-14.152c0-1.1-0.059-1.787-0.175-2.062c-0.116-0.274-0.352-0.516-0.706-0.722
			s-0.833-0.31-1.436-0.31h-0.714v-0.587h11.248v0.587h-0.714c-0.624,0-1.126,0.111-1.507,0.333
			c-0.275,0.148-0.492,0.402-0.65,0.762c-0.117,0.254-0.175,0.92-0.175,1.999v6.093h7.6v-6.093c0-1.1-0.059-1.787-0.175-2.062
			c-0.116-0.274-0.354-0.516-0.714-0.722s-0.841-0.31-1.443-0.31h-0.698v-0.587h11.232v0.587h-0.698
			c-0.634,0-1.137,0.111-1.507,0.333c-0.275,0.148-0.492,0.402-0.65,0.762c-0.116,0.254-0.175,0.92-0.175,1.999v14.152
			c0,1.1,0.059,1.787,0.175,2.062s0.354,0.516,0.714,0.722s0.841,0.31,1.443,0.31h0.698v0.587h-11.232v-0.587h0.698
			c0.635,0,1.137-0.111,1.507-0.333c0.275-0.148,0.492-0.402,0.65-0.762c0.116-0.254,0.175-0.92,0.175-1.999v-6.664H264.348z"/>
		<path fill="#981B1E" d="M294.397,112.612h-8.139c0.095,1.967,0.618,3.521,1.57,4.664c0.729,0.878,1.607,1.316,2.634,1.316
			c0.635,0,1.211-0.177,1.729-0.531c0.518-0.354,1.073-0.991,1.666-1.911l0.539,0.349c-0.804,1.64-1.692,2.8-2.665,3.482
			c-0.974,0.683-2.1,1.023-3.38,1.023c-2.2,0-3.866-0.846-4.997-2.539c-0.91-1.364-1.365-3.056-1.365-5.076
			c0-2.476,0.669-4.445,2.008-5.91c1.338-1.465,2.905-2.197,4.704-2.197c1.501,0,2.805,0.616,3.91,1.848
			C293.717,108.362,294.312,110.189,294.397,112.612z M290.493,111.548c0-1.703-0.092-2.871-0.277-3.506
			c-0.185-0.635-0.474-1.116-0.864-1.444c-0.223-0.19-0.519-0.285-0.889-0.285c-0.55,0-1,0.27-1.349,0.809
			c-0.624,0.941-0.937,2.232-0.937,3.871v0.556H290.493z"/>
		<path fill="#981B1E" d="M302.409,105.726v3.363c0.983-1.533,1.845-2.552,2.586-3.055c0.74-0.502,1.454-0.753,2.142-0.753
			c0.592,0,1.065,0.183,1.42,0.547c0.354,0.365,0.531,0.881,0.531,1.547c0,0.709-0.172,1.259-0.516,1.65s-0.759,0.587-1.245,0.587
			c-0.561,0-1.047-0.18-1.46-0.539c-0.412-0.359-0.655-0.561-0.729-0.604c-0.105-0.063-0.228-0.095-0.365-0.095
			c-0.307,0-0.598,0.116-0.872,0.349c-0.435,0.36-0.762,0.873-0.984,1.539c-0.338,1.026-0.507,2.158-0.507,3.396v3.411l0.016,0.889
			c0,0.603,0.037,0.988,0.111,1.158c0.127,0.285,0.314,0.494,0.562,0.626c0.249,0.133,0.669,0.215,1.262,0.246v0.571h-8.013v-0.571
			c0.646-0.053,1.082-0.229,1.31-0.531s0.341-1.098,0.341-2.388v-8.203c0-0.846-0.042-1.385-0.127-1.618
			c-0.105-0.296-0.259-0.513-0.46-0.65c-0.201-0.137-0.556-0.232-1.063-0.285v-0.587H302.409z"/>
		<path fill="#981B1E" d="M316.466,105.726v11.756c0,1.047,0.121,1.717,0.365,2.007c0.243,0.291,0.719,0.458,1.428,0.5v0.571h-8.013
			v-0.571c0.656-0.021,1.143-0.211,1.46-0.571c0.212-0.243,0.317-0.889,0.317-1.936v-8.662c0-1.048-0.122-1.716-0.365-2.007
			s-0.714-0.458-1.412-0.5v-0.587H316.466z M314.244,98.538c0.688,0,1.27,0.241,1.746,0.722c0.476,0.481,0.714,1.061,0.714,1.737
			c0,0.678-0.241,1.254-0.723,1.729c-0.481,0.477-1.061,0.714-1.737,0.714s-1.253-0.237-1.729-0.714
			c-0.477-0.476-0.715-1.052-0.715-1.729c0-0.677,0.238-1.256,0.715-1.737C312.991,98.78,313.568,98.538,314.244,98.538z"/>
		<path fill="#981B1E" d="M325.588,100.299v5.427h3.522v1.57h-3.522v9.154c0,0.857,0.04,1.41,0.119,1.658
			c0.079,0.249,0.22,0.449,0.421,0.603c0.2,0.153,0.386,0.23,0.555,0.23c0.688,0,1.338-0.523,1.952-1.571l0.476,0.35
			c-0.856,2.03-2.248,3.046-4.173,3.046c-0.941,0-1.737-0.262-2.388-0.785s-1.065-1.107-1.245-1.753
			c-0.106-0.359-0.159-1.333-0.159-2.92v-8.012h-1.936v-0.556c1.333-0.94,2.468-1.93,3.403-2.967
			c0.937-1.036,1.753-2.194,2.451-3.475H325.588z"/>
		<path fill="#981B1E" d="M338.709,118.37c-1.809,1.598-3.433,2.396-4.871,2.396c-0.846,0-1.549-0.277-2.109-0.833
			c-0.561-0.555-0.841-1.25-0.841-2.086c0-1.132,0.486-2.149,1.459-3.055c0.974-0.904,3.094-2.107,6.362-3.609v-1.491
			c0-1.121-0.061-1.827-0.183-2.118c-0.121-0.29-0.352-0.544-0.689-0.761c-0.339-0.217-0.72-0.325-1.143-0.325
			c-0.688,0-1.254,0.153-1.698,0.46c-0.274,0.19-0.412,0.412-0.412,0.666c0,0.222,0.148,0.497,0.444,0.825
			c0.401,0.455,0.603,0.894,0.603,1.316c0,0.519-0.192,0.96-0.579,1.325c-0.386,0.364-0.891,0.547-1.515,0.547
			c-0.667,0-1.225-0.2-1.674-0.603c-0.45-0.402-0.675-0.873-0.675-1.412c0-0.762,0.302-1.488,0.904-2.182
			c0.604-0.692,1.444-1.224,2.523-1.595c1.078-0.37,2.199-0.555,3.363-0.555c1.406,0,2.52,0.299,3.34,0.896
			c0.819,0.598,1.351,1.245,1.594,1.943c0.148,0.444,0.223,1.465,0.223,3.062v5.76c0,0.677,0.026,1.103,0.079,1.277
			c0.053,0.174,0.132,0.304,0.238,0.389c0.105,0.085,0.228,0.127,0.364,0.127c0.275,0,0.556-0.196,0.841-0.587l0.477,0.38
			c-0.529,0.783-1.076,1.352-1.643,1.706c-0.565,0.354-1.208,0.531-1.928,0.531c-0.846,0-1.507-0.198-1.982-0.595
			C339.106,119.775,338.815,119.174,338.709,118.37z M338.709,117.212v-4.966c-1.28,0.751-2.231,1.555-2.855,2.411
			c-0.413,0.571-0.619,1.148-0.619,1.729c0,0.487,0.175,0.915,0.523,1.285c0.265,0.286,0.635,0.429,1.111,0.429
			C337.398,118.101,338.011,117.805,338.709,117.212z"/>
		<path fill="#981B1E" d="M356.289,105.9h4.997v1.745h-2.84c0.519,0.519,0.878,0.989,1.079,1.412
			c0.254,0.571,0.381,1.169,0.381,1.793c0,1.058-0.294,1.976-0.881,2.753s-1.386,1.386-2.396,1.824
			c-1.01,0.439-1.906,0.659-2.689,0.659c-0.063,0-0.698-0.026-1.903-0.08c-0.477,0-0.876,0.156-1.198,0.469
			c-0.322,0.312-0.483,0.685-0.483,1.118c0,0.381,0.145,0.692,0.436,0.936c0.291,0.244,0.765,0.365,1.42,0.365l2.745-0.031
			c2.222,0,3.75,0.243,4.585,0.729c1.195,0.677,1.793,1.719,1.793,3.126c0,0.898-0.275,1.716-0.825,2.451
			c-0.55,0.734-1.274,1.276-2.173,1.626c-1.365,0.518-2.936,0.777-4.713,0.777c-1.332,0-2.549-0.13-3.648-0.389
			c-1.101-0.26-1.889-0.619-2.364-1.079s-0.714-0.944-0.714-1.451c0-0.487,0.183-0.924,0.547-1.31
			c0.365-0.386,1.045-0.711,2.039-0.976c-1.375-0.677-2.062-1.618-2.062-2.824c0-0.729,0.28-1.438,0.841-2.126
			s1.449-1.285,2.666-1.793c-1.418-0.518-2.443-1.2-3.078-2.046c-0.635-0.847-0.952-1.825-0.952-2.936
			c0-1.449,0.592-2.705,1.777-3.768c1.184-1.063,2.707-1.595,4.568-1.595C354.227,105.281,355.242,105.488,356.289,105.9z
			 M352.609,122.749c-1.079,0-1.793,0.09-2.143,0.27c-0.603,0.328-0.904,0.772-0.904,1.333c0,0.539,0.312,1.028,0.937,1.468
			c0.624,0.438,1.798,0.658,3.522,0.658c1.47,0,2.625-0.196,3.466-0.587c0.841-0.392,1.262-0.941,1.262-1.65
			c0-0.265-0.079-0.486-0.238-0.666c-0.285-0.317-0.717-0.534-1.293-0.65C356.641,122.807,355.105,122.749,352.609,122.749z
			 M353.544,106.265c-0.613,0-1.132,0.31-1.555,0.928c-0.423,0.619-0.635,1.901-0.635,3.848c0,1.576,0.209,2.657,0.627,3.245
			c0.418,0.587,0.912,0.88,1.483,0.88c0.635,0,1.163-0.291,1.587-0.872c0.423-0.582,0.634-1.714,0.634-3.396
			c0-1.894-0.237-3.184-0.714-3.871C354.634,106.519,354.157,106.265,353.544,106.265z"/>
		<path fill="#981B1E" d="M375.581,112.612h-8.139c0.095,1.967,0.618,3.521,1.57,4.664c0.729,0.878,1.607,1.316,2.634,1.316
			c0.635,0,1.211-0.177,1.729-0.531c0.518-0.354,1.073-0.991,1.666-1.911l0.539,0.349c-0.804,1.64-1.692,2.8-2.665,3.482
			c-0.974,0.683-2.1,1.023-3.38,1.023c-2.2,0-3.866-0.846-4.997-2.539c-0.91-1.364-1.365-3.056-1.365-5.076
			c0-2.476,0.669-4.445,2.008-5.91c1.338-1.465,2.905-2.197,4.704-2.197c1.501,0,2.805,0.616,3.91,1.848
			C374.902,108.362,375.496,110.189,375.581,112.612z M371.678,111.548c0-1.703-0.092-2.871-0.277-3.506
			c-0.185-0.635-0.474-1.116-0.864-1.444c-0.223-0.19-0.519-0.285-0.889-0.285c-0.55,0-1,0.27-1.349,0.809
			c-0.624,0.941-0.937,2.232-0.937,3.871v0.556H371.678z"/>
		<path fill="#981B1E" d="M399.729,98.554l0.175,7.172h-0.65c-0.308-1.798-1.061-3.245-2.262-4.34
			c-1.2-1.095-2.498-1.642-3.895-1.642c-1.079,0-1.934,0.288-2.562,0.864c-0.629,0.577-0.943,1.24-0.943,1.991
			c0,0.477,0.11,0.899,0.333,1.27c0.307,0.497,0.798,0.989,1.476,1.476c0.497,0.349,1.645,0.968,3.442,1.856
			c2.518,1.237,4.215,2.406,5.093,3.506c0.867,1.101,1.301,2.358,1.301,3.776c0,1.798-0.7,3.345-2.102,4.641
			c-1.402,1.296-3.182,1.943-5.339,1.943c-0.677,0-1.317-0.069-1.92-0.206c-0.603-0.138-1.359-0.396-2.269-0.777
			c-0.508-0.212-0.926-0.317-1.254-0.317c-0.274,0-0.565,0.105-0.872,0.317c-0.307,0.211-0.556,0.533-0.746,0.968h-0.587v-8.123
			h0.587c0.466,2.284,1.362,4.027,2.689,5.228s2.758,1.801,4.292,1.801c1.184,0,2.128-0.323,2.832-0.968
			c0.703-0.646,1.055-1.396,1.055-2.253c0-0.508-0.135-1-0.404-1.476c-0.271-0.477-0.68-0.929-1.229-1.356
			c-0.551-0.429-1.523-0.986-2.92-1.674c-1.957-0.963-3.363-1.782-4.22-2.46c-0.857-0.677-1.516-1.433-1.976-2.269
			c-0.46-0.835-0.69-1.755-0.69-2.761c0-1.713,0.63-3.173,1.889-4.379c1.258-1.205,2.845-1.809,4.76-1.809
			c0.697,0,1.374,0.085,2.03,0.254c0.497,0.127,1.103,0.362,1.816,0.706s1.214,0.516,1.5,0.516c0.274,0,0.491-0.084,0.65-0.254
			c0.158-0.169,0.307-0.576,0.444-1.222H399.729z"/>
		<path fill="#981B1E" d="M410.628,105.281c1.29,0,2.49,0.333,3.602,0.999c1.11,0.667,1.953,1.613,2.53,2.84
			c0.576,1.228,0.864,2.57,0.864,4.03c0,2.104-0.534,3.866-1.603,5.283c-1.29,1.714-3.072,2.57-5.347,2.57
			c-2.231,0-3.95-0.783-5.156-2.349c-1.205-1.564-1.809-3.379-1.809-5.441c0-2.126,0.616-3.979,1.849-5.561
			S408.481,105.281,410.628,105.281z M410.692,106.407c-0.54,0-1.003,0.204-1.389,0.611s-0.64,1.211-0.762,2.411
			c-0.121,1.201-0.183,2.869-0.183,5.006c0,1.132,0.074,2.189,0.223,3.173c0.116,0.751,0.365,1.322,0.745,1.714
			c0.381,0.392,0.814,0.587,1.302,0.587c0.476,0,0.872-0.132,1.189-0.396c0.413-0.359,0.688-0.862,0.825-1.508
			c0.211-1.005,0.317-3.035,0.317-6.092c0-1.798-0.101-3.033-0.302-3.705c-0.201-0.671-0.497-1.16-0.889-1.468
			C411.495,106.519,411.136,106.407,410.692,106.407z"/>
		<path fill="#981B1E" d="M431.984,116.737l0.492,0.381c-0.698,1.312-1.568,2.287-2.61,2.927s-2.149,0.96-3.324,0.96
			c-1.978,0-3.559-0.746-4.743-2.237s-1.777-3.284-1.777-5.378c0-2.021,0.54-3.798,1.618-5.331c1.302-1.851,3.094-2.776,5.379-2.776
			c1.533,0,2.753,0.386,3.657,1.158s1.356,1.634,1.356,2.586c0,0.603-0.183,1.084-0.548,1.443c-0.364,0.36-0.844,0.54-1.436,0.54
			c-0.624,0-1.14-0.206-1.547-0.619c-0.407-0.412-0.658-1.147-0.754-2.205c-0.063-0.666-0.217-1.132-0.46-1.396
			c-0.243-0.264-0.529-0.396-0.856-0.396c-0.508,0-0.941,0.27-1.301,0.81c-0.551,0.814-0.825,2.062-0.825,3.744
			c0,1.396,0.222,2.731,0.666,4.006s1.053,2.224,1.824,2.848c0.582,0.455,1.27,0.683,2.062,0.683c0.519,0,1.011-0.122,1.476-0.365
			C430.799,117.873,431.349,117.413,431.984,116.737z"/>
		<path fill="#981B1E" d="M440.091,105.726v11.756c0,1.047,0.121,1.717,0.365,2.007c0.243,0.291,0.719,0.458,1.428,0.5v0.571h-8.013
			v-0.571c0.656-0.021,1.143-0.211,1.46-0.571c0.212-0.243,0.317-0.889,0.317-1.936v-8.662c0-1.048-0.122-1.716-0.365-2.007
			s-0.714-0.458-1.412-0.5v-0.587H440.091z M437.869,98.538c0.688,0,1.27,0.241,1.746,0.722c0.476,0.481,0.714,1.061,0.714,1.737
			c0,0.678-0.241,1.254-0.723,1.729c-0.481,0.477-1.061,0.714-1.737,0.714s-1.253-0.237-1.729-0.714
			c-0.477-0.476-0.715-1.052-0.715-1.729c0-0.677,0.238-1.256,0.715-1.737C436.616,98.78,437.193,98.538,437.869,98.538z"/>
		<path fill="#981B1E" d="M455.893,112.612h-8.139c0.095,1.967,0.618,3.521,1.57,4.664c0.729,0.878,1.607,1.316,2.634,1.316
			c0.635,0,1.211-0.177,1.729-0.531c0.518-0.354,1.073-0.991,1.666-1.911l0.539,0.349c-0.804,1.64-1.692,2.8-2.665,3.482
			c-0.974,0.683-2.1,1.023-3.38,1.023c-2.2,0-3.866-0.846-4.997-2.539c-0.91-1.364-1.365-3.056-1.365-5.076
			c0-2.476,0.669-4.445,2.008-5.91c1.338-1.465,2.905-2.197,4.704-2.197c1.501,0,2.805,0.616,3.91,1.848
			C455.213,108.362,455.808,110.189,455.893,112.612z M451.99,111.548c0-1.703-0.092-2.871-0.277-3.506
			c-0.185-0.635-0.474-1.116-0.864-1.444c-0.223-0.19-0.519-0.285-0.889-0.285c-0.55,0-1,0.27-1.349,0.809
			c-0.624,0.941-0.937,2.232-0.937,3.871v0.556H451.99z"/>
		<path fill="#981B1E" d="M463.635,100.299v5.427h3.522v1.57h-3.522v9.154c0,0.857,0.04,1.41,0.119,1.658
			c0.079,0.249,0.22,0.449,0.421,0.603c0.2,0.153,0.386,0.23,0.555,0.23c0.688,0,1.338-0.523,1.952-1.571l0.476,0.35
			c-0.856,2.03-2.248,3.046-4.173,3.046c-0.941,0-1.737-0.262-2.388-0.785s-1.065-1.107-1.245-1.753
			c-0.106-0.359-0.159-1.333-0.159-2.92v-8.012h-1.936v-0.556c1.333-0.94,2.468-1.93,3.403-2.967
			c0.937-1.036,1.753-2.194,2.451-3.475H463.635z"/>
		<path fill="#981B1E" d="M475.376,121.162l-4.792-10.994c-0.719-1.661-1.251-2.682-1.594-3.062
			c-0.345-0.381-0.76-0.645-1.246-0.793v-0.587h7.886v0.587c-0.519,0.021-0.884,0.121-1.095,0.301
			c-0.212,0.181-0.317,0.397-0.317,0.651c0,0.401,0.264,1.195,0.793,2.38l2.538,5.807l1.729-4.49
			c0.624-1.597,0.937-2.708,0.937-3.332c0-0.391-0.13-0.703-0.389-0.936c-0.26-0.232-0.717-0.359-1.373-0.381v-0.587h4.967v0.587
			c-0.487,0.053-0.884,0.24-1.19,0.563c-0.307,0.322-0.819,1.42-1.539,3.292l-4.236,10.994c-1.068,2.75-1.861,4.442-2.38,5.077
			c-0.729,0.889-1.645,1.333-2.744,1.333c-0.878,0-1.59-0.252-2.134-0.754c-0.545-0.502-0.817-1.108-0.817-1.816
			c0-0.613,0.188-1.121,0.563-1.523c0.375-0.401,0.838-0.603,1.388-0.603c0.529,0,0.955,0.169,1.277,0.508
			c0.322,0.338,0.489,0.861,0.5,1.57c0.011,0.402,0.058,0.661,0.143,0.777s0.206,0.175,0.365,0.175c0.254,0,0.523-0.153,0.809-0.46
			c0.423-0.444,0.921-1.46,1.492-3.046L475.376,121.162z"/>
	</g>
</g>
</svg>
