<?xml version="1.0" encoding="utf-8"?>
<!-- Generator: Adobe Illustrator 16.0.4, SVG Export Plug-In . SVG Version: 6.00 Build 0)  -->
<!DOCTYPE svg PUBLIC "-//W3C//DTD SVG 1.1//EN" "http://www.w3.org/Graphics/SVG/1.1/DTD/svg11.dtd">
<svg version="1.1" id="chantry_island" xmlns="http://www.w3.org/2000/svg" xmlns:xlink="http://www.w3.org/1999/xlink" x="0px"
	 y="0px" width="136.1px" height="190.1px" viewBox="0 0 136.1 190.1" style="enable-background:new 0 0 136.1 190.1;"
	 xml:space="preserve">
<style type="text/css">
<![CDATA[
	.st0{fill:#475A84;}
	.st1{fill:none;stroke:#000000;stroke-width:0.5;stroke-linecap:square;stroke-miterlimit:10;}
	.st2{fill:#F4F4F4;}
	.st3{fill:#981B1E;}
	.st4{fill:none;stroke:#000000;stroke-miterlimit:10;}
	.st5{fill:#FFFFFF;}
	.st6{fill:none;stroke:#000000;stroke-width:0.5;stroke-miterlimit:10;}
	.st7{opacity:0.85;fill:#FFFFFF;}
	.st8{fill:#303030;}
	.st9{fill:#383838;}
	.st10{fill:#D1243D;}
	.st11{fill:none;stroke:#E8E8E8;stroke-width:0.3;stroke-miterlimit:10;}
	.st12{fill:none;stroke:#191919;stroke-width:0.8;stroke-miterlimit:10;}
]]>
</style>
<path id="circle" class="st3" d="M15.2,112.6c5.2,24.4,26.9,42.6,52.8,42.6c25.9,0,47.6-18.3,52.8-42.6l-4-0.3
	c-5.1,22.2-25,38.9-48.8,38.9c-23.8,0-43.7-16.7-48.8-38.9L15.2,112.6z M68,51.3c23.8,0,43.7,16.7,48.8,38.9l4-0.3
	C115.6,65.6,94,47.3,68,47.3l0,0c-25.9,0-47.6,18.3-52.8,42.6l4,0.3C24.3,67.9,44.3,51.3,68,51.3"/>
<g id="little_arrows">
	<polygon id="tr" class="st0" points="92.6,73 101.5,67.8 96.3,76.8 	"/>
	<polygon id="bl" class="st0" points="43.5,129.6 34.5,134.8 39.8,125.8 	"/>
	<polygon id="tl" class="st0" points="39.8,76.8 34.5,67.8 43.5,73 	"/>
	<polygon id="br" class="st0" points="96.3,125.8 101.5,134.8 92.6,129.6 	"/>
</g>
<g id="large_arrow">
	<polygon id="large_arrows_1_" class="st0" points="68,138.5 76.7,137.6 68,178 	"/>
	<polygon id="large_arrows_2_" class="st2" points="68,138.5 59.4,137.6 68,178 	"/>
	<polyline class="st1" points="59.4,137.6 68,178 76.7,137.6 	"/>
</g>
<path id="bottom_arch" class="st4" d="M125.1,113l-21.1-1.5c-4.4,15.7-18.8,27.1-35.9,27.1c-17.1,0-31.5-11.5-35.9-27.1L10.7,113"/>
<g id="lighthouse">
	<g>
		<path class="st5" d="M59.7,45.3l-1.4,19.9l6.4-1.1l6.3,0l6.8,1.2l-1.4-19.9h0c-2.7-0.5-5.5-0.7-8.4-0.7
			C65.2,44.6,62.4,44.8,59.7,45.3z"/>
		<path class="st5" d="M60.2,37.1c2.6-0.4,5.2-0.5,7.8-0.5c2.7,0,5.3,0.2,7.8,0.5l-0.3-4.3l0.7-2l-16.5-0.2l0.7,2.2L60.2,37.1z"/>
		<polyline class="st6" points="59.7,45.3 58.3,65.2 64.7,64.1 71,64.1 77.8,65.2 76.4,45.3 		"/>
		<polyline class="st6" points="75.9,37.1 75.6,32.8 76.3,30.7 59.8,30.6 60.5,32.8 60.2,37.1 		"/>
	</g>
	<g id="top">
		<ellipse class="st10" cx="68" cy="18.2" rx="5.5" ry="5"/>
		<rect x="67.8" y="12.5" class="st10" width="0.4" height="1.5"/>
		<circle class="st10" cx="68" cy="12" r="1"/>
		<path class="st10" d="M74.2,17.7c0,0.2-0.2,0.4-0.4,0.4H62.2c-0.2,0-0.4-0.2-0.4-0.4l0,0c0-0.2,0.2-0.4,0.4-0.4h11.6
			C74,17.3,74.2,17.5,74.2,17.7L74.2,17.7z"/>
	</g>
	<g>
		<rect x="62.5" y="17.7" class="st9" width="11" height="9.5"/>
		<line class="st11" x1="70.1" y1="17.7" x2="70.1" y2="27.2"/>
		<line class="st11" x1="68" y1="17.7" x2="68" y2="27.2"/>
		<line class="st11" x1="66" y1="17.7" x2="66" y2="27.2"/>
		<line class="st11" x1="72.1" y1="17.7" x2="72.1" y2="27.2"/>
		<line class="st11" x1="64" y1="17.7" x2="64" y2="27.2"/>
		<line class="st11" x1="73.5" y1="23.2" x2="62.5" y2="23.2"/>
		<line class="st11" x1="73.5" y1="20.2" x2="62.5" y2="20.2"/>
	</g>
	<path class="st10" d="M76.3,26.7c0-0.8-3.7-1.4-8.2-1.4c-4.6,0-8.2,0.6-8.2,1.4l0,0v3.9h16.5V26.7L76.3,26.7z"/>
	<path class="st7" d="M74.8,31c0,0,0.4-2.4-1-3.1s-2.6,0.8-3.9,0c-0.7-0.4-1.3-0.7-2.1-0.7h0c-0.8,0-1.4,0.3-2.1,0.7
		c-1.2,0.8-2.5-0.7-3.9,0s-1,3.1-1,3.1H74.8z"/>
	<path class="st8" d="M60.5,32.8C62.3,32.3,65,32,68,32c3,0,5.7,0.3,7.5,0.8c1.4-0.4,2.3-0.9,2.3-1.4c0-1.2-4.4-2.2-9.8-2.2
		c-5.4,0-9.8,1-9.8,2.2C58.2,31.9,59.1,32.4,60.5,32.8z"/>
	<line class="st12" x1="73.5" y1="57" x2="73.5" y2="61.6"/>
	<line class="st12" x1="63.2" y1="44.8" x2="63.2" y2="49.4"/>
</g>
<g id="Chantry_Island_Tours">
	<path class="st0" d="M34.1,46.6c0.4-0.1,0.6-0.1,0.6-0.1c0.1-0.1,0.1-0.1,0.1-0.2c0-0.1,0-0.2,0-0.3l0.2-0.1l1.1,1.7l-0.2,0.1
		c-0.4-0.3-0.8-0.5-1.1-0.6c-0.6-0.2-1.1-0.2-1.5,0.1c-0.5,0.3-0.7,0.7-0.6,1.3c0.1,0.5,0.3,1.2,0.8,1.9c0.3,0.5,0.7,0.9,1,1.2
		c0.6,0.5,1.2,0.6,1.8,0.2c0.4-0.2,0.6-0.5,0.8-0.9c0.1-0.2,0.2-0.6,0.2-1l0.3,0.1c-0.1,0.5-0.2,0.9-0.3,1.1c-0.2,0.5-0.5,0.9-1,1.1
		c-0.7,0.4-1.4,0.6-2.1,0.4c-0.8-0.2-1.5-0.7-2-1.5c-0.5-0.8-0.7-1.6-0.5-2.4c0.2-0.8,0.6-1.3,1.2-1.7
		C33.4,46.8,33.8,46.7,34.1,46.6z"/>
	<path class="st0" d="M38.6,50.5c0.1-0.1,0.2-0.2,0.2-0.3c0-0.1,0-0.2-0.1-0.4l-2-4c-0.1-0.2-0.2-0.3-0.2-0.3c-0.1,0-0.2,0-0.4,0
		L36,45.4l1.4-0.7l1.1,2.2c0-0.3,0.1-0.5,0.2-0.7c0.1-0.2,0.3-0.3,0.5-0.4c0.3-0.1,0.5-0.2,0.8-0.1s0.5,0.3,0.7,0.8l1,1.9
		c0.1,0.2,0.2,0.3,0.3,0.3c0.1,0,0.2,0,0.3,0l0.1,0.2l-1.7,0.9l-0.1-0.2c0.1-0.1,0.2-0.2,0.2-0.2c0-0.1,0-0.2-0.1-0.4l-1-1.9
		c-0.1-0.2-0.2-0.3-0.3-0.4c-0.1-0.1-0.3-0.2-0.5-0.1c-0.1,0.1-0.2,0.2-0.3,0.4s-0.1,0.3-0.1,0.4l1.1,2.1c0.1,0.2,0.2,0.3,0.2,0.3
		c0.1,0,0.2,0,0.3,0l0.1,0.2l-1.7,0.9L38.6,50.5z"/>
	<path class="st0" d="M42.5,46.8c0.2-0.3,0.6-0.8,1.2-1.3L43.5,45c-0.1-0.2-0.2-0.4-0.4-0.5c-0.1-0.1-0.3-0.1-0.6,0
		c-0.1,0.1-0.2,0.1-0.3,0.2s-0.1,0.2,0,0.3c0,0,0,0.1,0,0.1c0,0,0,0,0.1,0l0.1,0c0.1,0,0.1,0.1,0.1,0.1s0.1,0.1,0.1,0.2
		c0.1,0.2,0.1,0.3,0,0.4c-0.1,0.1-0.1,0.2-0.3,0.3c-0.1,0.1-0.3,0.1-0.4,0c-0.1,0-0.2-0.2-0.3-0.3c-0.1-0.3-0.1-0.6,0.1-0.9
		s0.5-0.5,0.9-0.7C43,44,43.4,44,43.8,44c0.4,0.1,0.6,0.3,0.8,0.8l0.8,2c0,0.1,0.1,0.1,0.1,0.1s0.1,0,0.1,0c0,0,0.1,0,0.1-0.1
		c0,0,0-0.1,0.1-0.1l0.2,0.1c-0.1,0.2-0.2,0.4-0.3,0.6c-0.1,0.1-0.2,0.2-0.3,0.2c-0.2,0.1-0.4,0.1-0.6,0c-0.1-0.1-0.2-0.2-0.3-0.3
		c-0.1,0.3-0.3,0.6-0.5,0.8c-0.1,0.1-0.3,0.2-0.4,0.3c-0.2,0.1-0.4,0.1-0.7,0s-0.4-0.2-0.5-0.5C42.2,47.5,42.2,47.2,42.5,46.8z
		 M44.2,47.3c0-0.1,0.1-0.2,0.1-0.3l-0.5-1.2c-0.2,0.1-0.3,0.3-0.4,0.5c-0.2,0.3-0.2,0.6-0.1,0.9c0.1,0.2,0.2,0.3,0.3,0.4
		c0.1,0.1,0.2,0.1,0.3,0C44.1,47.5,44.1,47.4,44.2,47.3z"/>
	<path class="st0" d="M46.2,46.9c0.1-0.1,0.2-0.1,0.3-0.2c0-0.1,0-0.2,0-0.4l-0.8-2.4c-0.1-0.2-0.1-0.3-0.2-0.3
		c-0.1,0-0.2-0.1-0.4,0l-0.1-0.2l1.4-0.5l0.2,0.6c0.1-0.2,0.1-0.5,0.3-0.7c0.1-0.2,0.3-0.3,0.6-0.4c0.3-0.1,0.6-0.1,0.9,0
		c0.2,0.1,0.4,0.4,0.6,0.9l0.7,2c0.1,0.2,0.1,0.3,0.2,0.3s0.2,0,0.3,0l0.1,0.2l-1.8,0.6l-0.1-0.2c0.1-0.1,0.2-0.1,0.2-0.2
		c0-0.1,0-0.2,0-0.4l-0.7-2c-0.1-0.2-0.1-0.3-0.2-0.4c-0.1-0.1-0.3-0.2-0.4-0.1c-0.1,0-0.2,0.1-0.3,0.3c-0.1,0.1-0.1,0.3-0.1,0.4
		l0.8,2.2c0.1,0.2,0.1,0.3,0.2,0.3c0.1,0,0.2,0,0.3,0l0.1,0.2l-1.8,0.6L46.2,46.9z"/>
	<path class="st0" d="M49.4,42.2L49.4,42c0-0.1,0.1-0.2,0.2-0.3c0.1-0.2,0.2-0.3,0.3-0.5c0.2-0.3,0.3-0.7,0.4-1.1l0.2-0.1l0.4,1.4
		l0.7-0.2l0.1,0.4l-0.7,0.2l0.7,2.5c0,0.1,0.1,0.2,0.1,0.3c0.1,0.1,0.2,0.1,0.3,0.1c0.1,0,0.2-0.1,0.2-0.2c0-0.1,0.1-0.2,0.1-0.4
		l0.2,0c0,0.3-0.1,0.5-0.2,0.7c-0.2,0.3-0.4,0.5-0.7,0.6c-0.2,0.1-0.4,0.1-0.5,0c-0.3-0.1-0.5-0.3-0.6-0.7l-0.8-2.7L49.4,42.2z"/>
	<path class="st0" d="M52.9,44.8c0.1-0.1,0.2-0.1,0.3-0.2s0.1-0.2,0-0.4l0-0.3l-0.5-2.3c0-0.2-0.1-0.3-0.2-0.3
		c-0.1-0.1-0.2-0.1-0.4-0.1l0-0.2l1.5-0.3l0.2,0.7c0.1-0.3,0.2-0.5,0.4-0.7c0.1-0.2,0.3-0.3,0.5-0.3c0.2,0,0.3,0,0.5,0.1
		c0.2,0.1,0.3,0.2,0.3,0.4c0,0.2,0,0.3,0,0.4c-0.1,0.1-0.2,0.2-0.3,0.2c-0.2,0-0.3,0-0.5-0.2c-0.2-0.1-0.3-0.2-0.3-0.2
		c-0.1,0-0.2,0.1-0.3,0.3c-0.1,0.2-0.1,0.4,0,0.6l0.4,1.6c0.1,0.3,0.1,0.4,0.2,0.5c0.1,0.1,0.3,0.1,0.5,0l0,0.2L52.9,45L52.9,44.8z"
		/>
	<path class="st0" d="M56.5,44.9c0.1-0.1,0.2-0.2,0.4-0.2c0.1,0,0.3,0,0.4,0.1c0.1,0.1,0.2,0.2,0.2,0.3l0,0.2c0,0,0,0.1,0.1,0.1
		c0,0,0.1,0,0.1,0c0.1,0,0.2-0.2,0.3-0.4c0.1-0.2,0.1-0.5,0.2-0.9l-1.4-2.4c-0.1-0.2-0.2-0.3-0.3-0.5s-0.2-0.3-0.3-0.4
		c-0.1-0.1-0.2-0.2-0.2-0.3c0,0-0.1,0-0.2,0l0-0.2l2-0.3l0,0.2c-0.1,0-0.2,0.1-0.3,0.1c-0.1,0-0.1,0.1-0.1,0.2c0,0,0,0,0,0.1
		s0,0.1,0.1,0.2l0.9,1.6l0,0l0.3-1.6c0-0.1,0-0.2,0-0.2c0-0.1,0-0.1,0-0.2c0-0.1-0.1-0.2-0.1-0.2c-0.1,0-0.2,0-0.3,0l0-0.2l1.2-0.2
		l0,0.2c-0.1,0-0.2,0.1-0.2,0.1s-0.1,0.2-0.1,0.4L58.4,44c-0.1,0.7-0.3,1.1-0.4,1.4c-0.1,0.3-0.4,0.4-0.7,0.5c-0.3,0-0.5,0-0.6-0.1
		c-0.2-0.1-0.2-0.3-0.3-0.4C56.4,45.2,56.4,45,56.5,44.9z"/>
	<path class="st0" d="M62.2,43.2c0.2,0,0.4-0.1,0.5-0.1c0.2-0.1,0.2-0.3,0.2-0.5l-0.3-4.2c0-0.3-0.1-0.4-0.3-0.5
		c-0.1,0-0.3-0.1-0.5-0.1l0-0.2l2.8-0.2l0,0.2c-0.3,0-0.4,0.1-0.5,0.1c-0.2,0.1-0.2,0.3-0.2,0.5l0.3,4.2c0,0.2,0.1,0.4,0.2,0.5
		c0.1,0.1,0.3,0.1,0.6,0.1l0,0.2l-2.8,0.2L62.2,43.2z"/>
	<path class="st0" d="M65.3,41.8l0.2,0c0.1,0.4,0.2,0.7,0.5,0.9c0.2,0.2,0.4,0.2,0.7,0.2c0.2,0,0.4-0.1,0.5-0.2
		c0.1-0.1,0.1-0.2,0.1-0.4c0-0.2-0.1-0.3-0.2-0.4c-0.1-0.1-0.2-0.1-0.3-0.2l-0.6-0.3c-0.3-0.2-0.5-0.3-0.7-0.5
		c-0.1-0.2-0.2-0.4-0.2-0.7c0-0.3,0.1-0.6,0.3-0.9c0.2-0.3,0.5-0.4,0.9-0.4c0.2,0,0.4,0,0.5,0.1c0.2,0.1,0.3,0.1,0.4,0.1
		c0.1,0,0.1,0,0.1,0c0,0,0-0.1,0.1-0.1l0.2,0l0,1.3l-0.2,0c-0.1-0.3-0.2-0.5-0.4-0.7c-0.2-0.2-0.4-0.3-0.6-0.3
		c-0.2,0-0.3,0.1-0.4,0.2c-0.1,0.1-0.1,0.2-0.1,0.4c0,0.1,0,0.2,0.1,0.3c0.1,0.1,0.2,0.2,0.4,0.3l0.4,0.2c0.3,0.1,0.5,0.3,0.6,0.4
		c0.2,0.2,0.3,0.5,0.3,0.8c0,0.3-0.1,0.6-0.3,0.9c-0.2,0.3-0.5,0.4-1,0.4c-0.1,0-0.2,0-0.3,0s-0.2-0.1-0.4-0.1l-0.1,0
		c-0.1,0-0.1,0-0.1,0s0,0,0,0c0,0-0.1,0-0.1,0.1c0,0-0.1,0.1-0.1,0.2l-0.2,0L65.3,41.8z"/>
	<path class="st0" d="M68.4,42.9c0.1,0,0.2-0.1,0.3-0.1s0.1-0.2,0.1-0.4l0.1-4.5c0-0.2,0-0.3-0.1-0.4c-0.1-0.1-0.2-0.1-0.3-0.1
		l0-0.2l1.5,0l-0.1,5.2c0,0.2,0,0.3,0.1,0.4s0.2,0.1,0.3,0.2l0,0.2l-1.9,0L68.4,42.9z"/>
	<path class="st0" d="M71.2,41.4c0.4-0.2,0.9-0.4,1.7-0.6l0-0.6c0-0.3,0-0.5-0.1-0.6s-0.3-0.2-0.5-0.2c-0.1,0-0.3,0-0.4,0.1
		c-0.1,0.1-0.1,0.1-0.2,0.2c0,0,0,0.1,0,0.1c0,0,0,0,0,0.1l0,0.1C72,40,72,40,72,40.1c0,0.1,0,0.1,0,0.2c0,0.2-0.1,0.3-0.2,0.4
		c-0.1,0.1-0.2,0.1-0.4,0.1c-0.2,0-0.3-0.1-0.4-0.2c-0.1-0.1-0.1-0.3-0.1-0.4c0-0.3,0.2-0.6,0.5-0.8c0.3-0.2,0.7-0.2,1.1-0.2
		c0.5,0,0.8,0.2,1.1,0.4c0.3,0.2,0.4,0.6,0.4,1.1l-0.2,2.1c0,0.1,0,0.1,0,0.2c0,0,0.1,0.1,0.1,0.1c0,0,0.1,0,0.1,0
		c0,0,0.1,0,0.1-0.1l0.1,0.2c-0.2,0.2-0.4,0.3-0.6,0.4c-0.1,0-0.3,0.1-0.4,0c-0.2,0-0.4-0.1-0.5-0.3c-0.1-0.1-0.1-0.2-0.1-0.4
		c-0.2,0.2-0.5,0.4-0.8,0.5c-0.2,0.1-0.3,0.1-0.5,0.1c-0.2,0-0.4-0.1-0.6-0.3c-0.2-0.2-0.3-0.4-0.2-0.7
		C70.7,41.9,70.9,41.6,71.2,41.4z M72.6,42.7c0.1,0,0.1-0.1,0.2-0.2l0.1-1.3c-0.2,0-0.4,0.1-0.6,0.2c-0.3,0.2-0.4,0.4-0.5,0.8
		c0,0.2,0,0.3,0.1,0.4c0.1,0.1,0.2,0.2,0.3,0.2C72.3,42.8,72.4,42.7,72.6,42.7z"/>
	<path class="st0" d="M74.5,43.2c0.1,0,0.3,0,0.3-0.1s0.1-0.2,0.2-0.4l0.4-2.5c0-0.2,0-0.3,0-0.4c0-0.1-0.2-0.1-0.3-0.2l0-0.2
		l1.5,0.2l-0.1,0.6c0.2-0.2,0.3-0.3,0.6-0.5c0.2-0.1,0.4-0.1,0.7-0.1c0.3,0,0.6,0.2,0.8,0.4c0.2,0.2,0.2,0.6,0.1,1.1l-0.3,2.1
		c0,0.2,0,0.3,0,0.4c0.1,0.1,0.2,0.1,0.3,0.2l0,0.2l-1.9-0.3l0-0.2c0.1,0,0.3,0,0.3-0.1c0.1,0,0.1-0.2,0.1-0.4l0.3-2.1
		c0-0.2,0-0.3,0-0.5c0-0.2-0.1-0.3-0.3-0.3c-0.1,0-0.3,0-0.4,0.1s-0.2,0.2-0.3,0.3l-0.3,2.3c0,0.2,0,0.3,0,0.4
		c0,0.1,0.1,0.1,0.3,0.2l0,0.2l-1.9-0.3L74.5,43.2z"/>
	<path class="st0" d="M80.1,40.7c0.4-0.3,0.8-0.4,1.2-0.4c0.2,0,0.4,0.1,0.5,0.3c0.1,0.1,0.2,0.2,0.3,0.4l0.3-1.6c0-0.2,0-0.4,0-0.4
		c-0.1-0.1-0.2-0.1-0.5-0.2l0-0.2l1.7,0.4L82.6,44c0,0.2,0,0.3,0,0.4s0.2,0.1,0.3,0.2l0,0.2c-0.5,0-0.7-0.1-0.9-0.1
		c-0.1,0-0.4,0-0.7,0l0.1-0.6c-0.2,0.1-0.3,0.2-0.5,0.3c-0.2,0.1-0.4,0.1-0.7,0.1c-0.4-0.1-0.7-0.3-0.9-0.7
		c-0.2-0.4-0.2-0.9-0.1-1.5C79.4,41.5,79.7,41,80.1,40.7z M81.2,43.9c0.2-0.1,0.3-0.2,0.3-0.3l0.4-2.1c0-0.1,0-0.2-0.1-0.3
		c-0.1-0.2-0.2-0.3-0.4-0.3c-0.3-0.1-0.5,0.1-0.7,0.5c-0.1,0.2-0.2,0.5-0.3,0.9c-0.1,0.4-0.1,0.8-0.1,1c0,0.4,0.1,0.7,0.4,0.7
		C80.9,44.1,81.1,44.1,81.2,43.9z"/>
	<path class="st0" d="M86.8,39.9l4.6,1.5l-0.6,1.7L90.7,43c0.1-0.6,0.1-1.1-0.2-1.4c-0.2-0.2-0.4-0.3-0.8-0.5l-1.5,4.4
		c-0.1,0.3-0.1,0.5-0.1,0.7c0.1,0.1,0.3,0.3,0.6,0.4l-0.1,0.2l-2.7-0.9l0.1-0.2c0.3,0.1,0.5,0.1,0.6,0s0.2-0.3,0.4-0.6l1.5-4.4
		c-0.4-0.1-0.7-0.1-0.9-0.1c-0.4,0.1-0.8,0.4-1,1l-0.2-0.1L86.8,39.9z"/>
	<path class="st0" d="M91,43.8c0.5-0.2,1-0.3,1.4-0.1c0.5,0.2,0.8,0.6,1,1.1c0.2,0.5,0.1,1-0.1,1.6c-0.2,0.5-0.6,0.9-1,1.2
		c-0.5,0.3-1,0.3-1.5,0.1c-0.5-0.2-0.8-0.6-1-1.1c-0.2-0.5-0.1-1,0.1-1.6C90.2,44.5,90.6,44.1,91,43.8z M90.7,46.7
		c-0.1,0.4,0,0.6,0.3,0.7c0.2,0.1,0.5,0,0.6-0.2c0.2-0.2,0.4-0.7,0.7-1.3c0.2-0.6,0.4-1.1,0.4-1.4c0-0.3-0.1-0.5-0.3-0.6
		c-0.3-0.1-0.5,0-0.7,0.3c-0.2,0.2-0.3,0.6-0.6,1.2C90.8,46.1,90.7,46.5,90.7,46.7z"/>
	<path class="st0" d="M96,45.4l-1.3,2.7c-0.1,0.2-0.1,0.3-0.1,0.4c0,0.2,0.1,0.3,0.3,0.4c0.1,0.1,0.2,0.1,0.4,0c0.1,0,0.2,0,0.3-0.1
		l1.1-2.2c0.1-0.2,0.1-0.3,0.1-0.4c0-0.1-0.1-0.2-0.3-0.3l0.1-0.2l1.4,0.7l-1.4,2.8c-0.1,0.2-0.1,0.3-0.1,0.4s0.1,0.2,0.3,0.3
		l-0.1,0.2c-0.5-0.2-0.8-0.3-0.9-0.3s-0.3-0.1-0.6-0.1l0.3-0.5c-0.3,0.1-0.5,0.1-0.6,0.1c-0.3,0-0.5,0-0.7-0.1
		c-0.2-0.1-0.4-0.3-0.5-0.6c-0.1-0.3-0.1-0.6,0.1-1l1-2c0.1-0.2,0.1-0.3,0.1-0.4c0-0.1-0.1-0.2-0.2-0.3l0.1-0.2L96,45.4z"/>
	<path class="st0" d="M96.9,50.2c0.1,0.1,0.3,0.1,0.3,0.1s0.2-0.1,0.3-0.3l0.1-0.2l1.2-2.1c0.1-0.2,0.1-0.3,0.1-0.4
		c0-0.1-0.1-0.2-0.2-0.3l0.1-0.2l1.3,0.8l-0.3,0.6c0.3-0.1,0.5-0.2,0.7-0.2c0.2,0,0.4,0,0.6,0.1c0.1,0.1,0.2,0.2,0.3,0.4
		c0.1,0.2,0,0.3-0.1,0.5c-0.1,0.1-0.2,0.2-0.3,0.3c-0.1,0-0.3,0-0.4,0c-0.1-0.1-0.2-0.2-0.3-0.4c0-0.2-0.1-0.3-0.1-0.4
		c-0.1-0.1-0.2,0-0.4,0c-0.2,0.1-0.3,0.2-0.5,0.5l-0.8,1.4c-0.1,0.3-0.2,0.4-0.2,0.5c0,0.1,0.1,0.2,0.3,0.4l-0.1,0.2l-1.9-1.1
		L96.9,50.2z"/>
	<path class="st0" d="M100.6,51l0.2,0.1c-0.2,0.4-0.2,0.7-0.1,1c0.1,0.3,0.2,0.5,0.4,0.6c0.2,0.1,0.3,0.2,0.5,0.1s0.2-0.1,0.3-0.3
		c0.1-0.1,0.1-0.3,0.1-0.4c0-0.1-0.1-0.2-0.1-0.3l-0.3-0.6c-0.2-0.3-0.3-0.6-0.3-0.8c0-0.2,0.1-0.5,0.2-0.7c0.2-0.3,0.4-0.5,0.8-0.6
		c0.3-0.1,0.6,0,1,0.2c0.1,0.1,0.3,0.2,0.4,0.4s0.2,0.2,0.2,0.3c0.1,0,0.1,0,0.1,0c0,0,0.1,0,0.1-0.1l0.1,0.1l-0.7,1.1l-0.2-0.1
		c0.1-0.3,0.1-0.6,0.1-0.8c0-0.2-0.2-0.4-0.4-0.6c-0.2-0.1-0.3-0.1-0.4-0.1c-0.1,0-0.2,0.1-0.3,0.2c-0.1,0.1-0.1,0.2-0.1,0.3
		c0,0.1,0.1,0.3,0.2,0.5l0.2,0.4c0.2,0.3,0.2,0.5,0.3,0.7c0.1,0.3,0,0.6-0.2,0.9c-0.2,0.3-0.4,0.5-0.8,0.6c-0.3,0.1-0.7,0.1-1-0.2
		c-0.1-0.1-0.2-0.1-0.3-0.2c-0.1-0.1-0.2-0.2-0.3-0.3l-0.1-0.1c0,0-0.1-0.1-0.1-0.1c0,0,0,0,0,0c0,0-0.1,0-0.1,0c0,0-0.1,0-0.2,0.1
		l-0.2-0.1L100.6,51z"/>
</g>
<path id="top_arch" class="st4" d="M125.4,89.6L104,91.1C99.5,75.4,85.1,64,68,64S36.6,75.4,32.1,91.1l-21.4-1.5"/>
<g id="Name">
	<path class="st3" d="M42,89.1c0.6,0,1.1-0.1,1.3-0.4c0.2-0.2,0.3-0.6,0.3-1v-8.3c0-0.5-0.1-0.8-0.3-0.9c-0.2-0.1-0.6-0.2-1.2-0.3
		v-0.4h4.3l3.3,8.1h0.1l3.3-8.1h4.3v0.4c-0.6,0-1,0.2-1.2,0.3c-0.2,0.2-0.3,0.6-0.3,1.3v7.7c0,0.6,0.1,1.1,0.3,1.3
		c0.2,0.2,0.6,0.3,1.2,0.3v0.4h-5.6v-0.4c0.5,0,0.9-0.1,1.1-0.3c0.3-0.2,0.4-0.5,0.4-1v-8.6h-0.1L49,89.5h-0.5l-4.2-10.1h-0.1v7.9
		c0,0.6,0.1,1,0.3,1.3c0.2,0.3,0.7,0.4,1.4,0.4v0.4h-4V89.1z"/>
	<path class="st3" d="M59.1,86c0.7-0.5,1.9-0.9,3.5-1.4v-1.3c0-0.5-0.1-0.9-0.3-1.1c-0.2-0.2-0.6-0.4-1.1-0.4
		c-0.3,0-0.6,0.1-0.8,0.2c-0.2,0.1-0.3,0.3-0.3,0.4c0,0.1,0,0.1,0,0.2c0,0,0.1,0.1,0.1,0.1l0.1,0.1c0.1,0.1,0.1,0.2,0.2,0.3
		s0.1,0.2,0.1,0.4c0,0.3-0.1,0.6-0.3,0.8s-0.5,0.3-0.7,0.3c-0.3,0-0.6-0.1-0.8-0.3c-0.2-0.2-0.3-0.5-0.3-0.9c0-0.7,0.3-1.2,0.9-1.6
		c0.6-0.4,1.4-0.6,2.3-0.6c1,0,1.8,0.2,2.4,0.6c0.6,0.4,1,1.1,1,2.1v4.2c0,0.1,0,0.2,0.1,0.3c0.1,0.1,0.1,0.1,0.2,0.1
		c0.1,0,0.1,0,0.2,0c0.1,0,0.1-0.1,0.2-0.2l0.3,0.4c-0.3,0.4-0.7,0.7-1.1,0.8c-0.3,0.1-0.5,0.2-0.8,0.2c-0.5,0-0.9-0.2-1.1-0.5
		c-0.1-0.2-0.2-0.4-0.3-0.8c-0.5,0.5-1,0.8-1.6,1c-0.4,0.1-0.7,0.2-1.1,0.2c-0.5,0-0.9-0.2-1.3-0.5C58.2,89,58,88.5,58,87.9
		C58,87.1,58.4,86.5,59.1,86z M62.1,88.3c0.1-0.1,0.3-0.3,0.5-0.5v-2.6c-0.5,0.1-0.9,0.3-1.2,0.5c-0.6,0.4-0.9,0.9-0.9,1.6
		c0,0.4,0.1,0.7,0.3,0.9c0.2,0.2,0.4,0.3,0.6,0.3C61.6,88.5,61.8,88.4,62.1,88.3z"/>
	<path class="st3" d="M66.1,89.1c0.3,0,0.6-0.1,0.7-0.2c0.1-0.1,0.2-0.4,0.2-0.7l0-0.5v-4.8c0-0.4-0.1-0.6-0.2-0.8
		c-0.1-0.1-0.4-0.2-0.7-0.3v-0.4h3.2v1.4c0.4-0.5,0.7-0.9,1.1-1.2c0.4-0.3,0.8-0.4,1.2-0.4c0.3,0,0.7,0.1,0.9,0.3
		c0.3,0.2,0.4,0.6,0.4,1c0,0.3-0.1,0.6-0.3,0.8c-0.2,0.2-0.5,0.3-0.8,0.3c-0.4,0-0.7-0.2-0.9-0.5s-0.4-0.5-0.6-0.5
		c-0.2,0-0.5,0.1-0.7,0.4c-0.2,0.3-0.3,0.7-0.3,1.2v3.3c0,0.6,0.1,0.9,0.2,1.1c0.2,0.1,0.5,0.2,1,0.3v0.4h-4.5V89.1z"/>
	<path class="st3" d="M73.4,89.1c0.3-0.1,0.5-0.1,0.6-0.2c0.2-0.2,0.2-0.4,0.2-0.8v-5.1c0-0.4-0.1-0.6-0.2-0.7
		C74,82,73.7,82,73.4,81.9v-0.4h3.3v6.7c0,0.4,0.1,0.6,0.2,0.7c0.1,0.1,0.3,0.2,0.6,0.3v0.4h-4.1V89.1z M74.5,77.8
		c0.3-0.3,0.6-0.4,0.9-0.4c0.4,0,0.7,0.1,0.9,0.4c0.3,0.3,0.4,0.6,0.4,1c0,0.4-0.1,0.7-0.4,1c-0.3,0.3-0.6,0.4-0.9,0.4
		c-0.4,0-0.7-0.1-0.9-0.4c-0.3-0.3-0.4-0.6-0.4-1C74.1,78.4,74.3,78.1,74.5,77.8z"/>
	<path class="st3" d="M77.9,89.1c0.3,0,0.5-0.1,0.7-0.3s0.2-0.4,0.2-0.8v-5.1c0-0.4-0.1-0.6-0.2-0.7c-0.1-0.1-0.4-0.2-0.7-0.3v-0.4
		h3.2v1.3c0.3-0.4,0.6-0.8,1-1c0.4-0.3,0.9-0.4,1.4-0.4c0.7,0,1.3,0.2,1.7,0.6c0.4,0.4,0.6,1.1,0.6,2v4.2c0,0.4,0.1,0.6,0.2,0.8
		c0.1,0.1,0.3,0.2,0.7,0.2v0.4h-4v-0.4c0.3-0.1,0.5-0.1,0.6-0.3c0.1-0.1,0.2-0.4,0.2-0.7v-4.2c0-0.4,0-0.7-0.1-0.9
		c-0.1-0.4-0.4-0.5-0.8-0.5c-0.3,0-0.6,0.1-0.8,0.3c-0.2,0.2-0.4,0.4-0.6,0.7v4.7c0,0.4,0.1,0.6,0.2,0.7c0.1,0.1,0.3,0.2,0.6,0.3
		v0.4h-4.1V89.1z"/>
	<path class="st3" d="M88.2,82.4c0.7-0.7,1.5-1.1,2.5-1.1c0.6,0,1.1,0.2,1.6,0.5s0.9,0.7,1.1,1.3c0.2,0.4,0.3,0.9,0.4,1.6
		c0,0.3,0.1,0.5,0.1,0.7h-4.3c0,0.7,0.2,1.3,0.3,1.8c0.3,1,0.9,1.4,1.8,1.4c0.4,0,0.8-0.1,1.1-0.4c0.2-0.2,0.5-0.4,0.8-0.8l0.4,0.2
		c-0.5,0.9-1.1,1.5-1.8,1.9c-0.4,0.2-1,0.3-1.5,0.3c-0.8,0-1.6-0.3-2.4-1c-0.7-0.7-1.1-1.8-1.1-3.2C87.2,84.2,87.5,83.1,88.2,82.4z
		 M91.8,84.6c0-1-0.1-1.8-0.2-2.2c-0.1-0.4-0.4-0.6-0.9-0.6c-0.4,0-0.7,0.2-0.9,0.7s-0.3,1.2-0.3,2.1H91.8z"/>
	<path class="st3" d="M35.6,105.1c0.5,0,0.8-0.1,1-0.2c0.3-0.2,0.5-0.5,0.5-1v-8.5c0-0.5-0.1-0.8-0.4-1c-0.2-0.1-0.5-0.2-1-0.2v-0.4
		h5.8v0.4c-0.5,0-0.8,0.1-1,0.2c-0.3,0.2-0.5,0.5-0.5,1V99h4.1v-3.6c0-0.5-0.2-0.8-0.5-1c-0.2-0.1-0.5-0.2-1.1-0.2v-0.4h5.8v0.4
		c-0.5,0-0.8,0.1-1,0.2c-0.3,0.2-0.5,0.5-0.5,1v8.5c0,0.5,0.2,0.9,0.5,1c0.2,0.1,0.5,0.2,1,0.2v0.4h-5.8v-0.4c0.5,0,0.8-0.1,1-0.2
		c0.3-0.2,0.5-0.5,0.5-1v-4h-4.1v4c0,0.5,0.2,0.9,0.5,1.1c0.2,0.1,0.5,0.2,1,0.2v0.4h-5.8V105.1z"/>
	<path class="st3" d="M50.2,98.4c0.7-0.7,1.5-1.1,2.5-1.1c0.6,0,1.1,0.2,1.6,0.5s0.9,0.7,1.1,1.3c0.2,0.4,0.3,0.9,0.4,1.6
		c0,0.3,0.1,0.5,0.1,0.7h-4.3c0,0.7,0.2,1.3,0.3,1.8c0.3,1,0.9,1.4,1.8,1.4c0.4,0,0.8-0.1,1.1-0.4c0.2-0.2,0.5-0.4,0.8-0.8l0.4,0.2
		c-0.5,0.9-1.1,1.5-1.8,1.9c-0.4,0.2-1,0.3-1.5,0.3c-0.8,0-1.6-0.3-2.4-1c-0.7-0.7-1.1-1.8-1.1-3.2C49.2,100.2,49.5,99.1,50.2,98.4z
		 M53.8,100.6c0-1-0.1-1.8-0.2-2.2c-0.1-0.4-0.4-0.6-0.9-0.6c-0.4,0-0.7,0.2-0.9,0.7c-0.2,0.5-0.3,1.2-0.3,2.1H53.8z"/>
	<path class="st3" d="M57,105.1c0.3,0,0.6-0.1,0.7-0.2c0.1-0.1,0.2-0.4,0.2-0.7l0-0.5v-4.8c0-0.4-0.1-0.6-0.2-0.8
		c-0.1-0.1-0.4-0.2-0.7-0.3v-0.4h3.2v1.4c0.4-0.5,0.7-0.9,1.1-1.2c0.4-0.3,0.8-0.4,1.2-0.4c0.3,0,0.7,0.1,0.9,0.3
		c0.3,0.2,0.4,0.6,0.4,1c0,0.3-0.1,0.6-0.3,0.8c-0.2,0.2-0.5,0.3-0.8,0.3c-0.4,0-0.7-0.2-0.9-0.5s-0.4-0.5-0.6-0.5
		c-0.2,0-0.5,0.1-0.7,0.4c-0.2,0.3-0.3,0.7-0.3,1.2v3.3c0,0.6,0.1,0.9,0.2,1.1c0.2,0.1,0.5,0.2,1,0.3v0.4H57V105.1z"/>
	<path class="st3" d="M64.9,105.1c0.3-0.1,0.5-0.1,0.6-0.2c0.2-0.2,0.2-0.4,0.2-0.8v-5.1c0-0.4-0.1-0.6-0.2-0.7
		c-0.1-0.1-0.3-0.2-0.7-0.3v-0.4h3.3v6.7c0,0.4,0.1,0.6,0.2,0.7c0.1,0.1,0.3,0.2,0.6,0.3v0.4h-4V105.1z M66,93.8
		c0.3-0.3,0.6-0.4,0.9-0.4c0.4,0,0.7,0.1,0.9,0.4c0.3,0.3,0.4,0.6,0.4,1c0,0.4-0.1,0.7-0.4,1c-0.3,0.3-0.6,0.4-0.9,0.4
		c-0.4,0-0.7-0.1-0.9-0.4c-0.3-0.3-0.4-0.6-0.4-1C65.6,94.4,65.7,94.1,66,93.8z"/>
	<path class="st3" d="M69.9,98.2v-0.5c0.1-0.1,0.3-0.3,0.6-0.5c0.3-0.3,0.6-0.6,0.8-0.9c0.5-0.6,1-1.2,1.4-1.9h0.4v3h1.6v0.8h-1.6
		v5.3c0,0.2,0,0.5,0.1,0.6c0.1,0.3,0.3,0.4,0.5,0.4c0.2,0,0.4-0.1,0.6-0.2s0.3-0.4,0.4-0.7l0.4,0.2c-0.2,0.5-0.4,0.9-0.7,1.2
		c-0.5,0.5-1.1,0.8-1.8,0.8c-0.4,0-0.7-0.1-1-0.2c-0.6-0.3-0.9-0.8-0.9-1.6v-5.7H69.9z"/>
	<path class="st3" d="M77.2,102c0.7-0.5,1.9-0.9,3.5-1.4v-1.3c0-0.5-0.1-0.9-0.3-1.1c-0.2-0.2-0.6-0.4-1.1-0.4
		c-0.3,0-0.6,0.1-0.8,0.2c-0.2,0.1-0.3,0.3-0.3,0.4c0,0.1,0,0.1,0,0.2c0,0,0.1,0.1,0.1,0.1l0.1,0.1c0.1,0.1,0.1,0.2,0.2,0.3
		s0.1,0.2,0.1,0.4c0,0.3-0.1,0.6-0.3,0.8c-0.2,0.2-0.5,0.3-0.7,0.3c-0.3,0-0.6-0.1-0.8-0.3c-0.2-0.2-0.3-0.5-0.3-0.9
		c0-0.7,0.3-1.2,0.9-1.6c0.6-0.4,1.4-0.6,2.3-0.6c1,0,1.8,0.2,2.4,0.6c0.6,0.4,1,1.1,1,2.1v4.2c0,0.1,0,0.2,0.1,0.3
		c0.1,0.1,0.1,0.1,0.2,0.1c0.1,0,0.1,0,0.2,0c0.1,0,0.1-0.1,0.2-0.2l0.3,0.4c-0.3,0.4-0.7,0.7-1.1,0.8c-0.3,0.1-0.5,0.2-0.8,0.2
		c-0.5,0-0.9-0.2-1.1-0.5c-0.1-0.2-0.2-0.4-0.3-0.8c-0.5,0.5-1,0.8-1.6,1c-0.4,0.1-0.7,0.2-1.1,0.2c-0.5,0-0.9-0.2-1.3-0.5
		c-0.4-0.3-0.6-0.8-0.6-1.4C76.1,103.1,76.4,102.5,77.2,102z M80.1,104.3c0.1-0.1,0.3-0.3,0.5-0.5v-2.6c-0.5,0.1-0.9,0.3-1.2,0.5
		c-0.6,0.4-0.9,0.9-0.9,1.6c0,0.4,0.1,0.7,0.3,0.9c0.2,0.2,0.4,0.3,0.6,0.3C79.6,104.5,79.9,104.4,80.1,104.3z"/>
	<path class="st3" d="M85.2,106.8c0.2-0.3,0.6-0.4,1-0.5v-0.1c-0.3-0.1-0.6-0.3-0.7-0.4c-0.3-0.2-0.4-0.6-0.4-1
		c0-0.5,0.2-0.9,0.6-1.3c0.4-0.3,0.8-0.6,1.2-0.7v-0.1c-0.6-0.2-1-0.6-1.4-1c-0.4-0.4-0.5-1-0.5-1.6c0-0.8,0.3-1.5,0.9-2
		s1.5-0.8,2.5-0.8c0.4,0,0.8,0,1.1,0.1c0.3,0.1,0.6,0.2,0.8,0.2h2.2v0.9h-1.4c0.2,0.2,0.4,0.5,0.5,0.8c0.1,0.3,0.2,0.6,0.2,1
		c0,1.1-0.5,1.8-1.5,2.2c-0.5,0.2-1.2,0.3-2,0.3c-0.2,0-0.3,0-0.3,0c-0.1,0-0.1,0-0.2,0c-0.2,0-0.3,0.1-0.5,0.3
		c-0.2,0.2-0.3,0.4-0.3,0.6c0,0.2,0,0.3,0.1,0.4c0.1,0.1,0.2,0.2,0.4,0.2c0.1,0,0.3,0,0.5,0c0.3,0,0.5,0,0.6,0l1.1,0
		c0.6,0,1.2,0.1,1.6,0.3c0.8,0.3,1.2,1,1.2,1.8c0,1.1-0.6,1.9-1.8,2.4c-0.6,0.2-1.5,0.3-2.4,0.3c-0.8,0-1.5-0.1-2.1-0.2
		c-1-0.3-1.4-0.7-1.4-1.4C84.9,107.3,85,107,85.2,106.8z M86.9,108.3c0.4,0.2,0.9,0.3,1.6,0.3c0.6,0,1.2-0.1,1.6-0.2
		c0.8-0.2,1.2-0.6,1.2-1.1c0-0.3-0.1-0.5-0.3-0.7c-0.2-0.2-0.6-0.2-1.2-0.2H87c-0.2,0.1-0.3,0.3-0.4,0.4c-0.1,0.2-0.2,0.4-0.2,0.6
		C86.4,107.8,86.6,108.1,86.9,108.3z M87.5,101.6c0.2,0.5,0.5,0.8,1,0.8c0.4,0,0.7-0.2,0.9-0.6c0.2-0.4,0.2-0.9,0.2-1.7
		c0-0.8-0.1-1.4-0.3-1.7c-0.2-0.4-0.5-0.5-0.9-0.5c-0.4,0-0.7,0.2-0.9,0.6c-0.1,0.4-0.2,0.9-0.2,1.7
		C87.4,100.8,87.4,101.3,87.5,101.6z"/>
	<path class="st3" d="M94.7,98.4c0.7-0.7,1.5-1.1,2.5-1.1c0.6,0,1.1,0.2,1.6,0.5s0.9,0.7,1.1,1.3c0.2,0.4,0.3,0.9,0.4,1.6
		c0,0.3,0.1,0.5,0.1,0.7h-4.3c0,0.7,0.1,1.3,0.3,1.8c0.3,1,0.9,1.4,1.8,1.4c0.4,0,0.8-0.1,1.1-0.4c0.2-0.2,0.5-0.4,0.8-0.8l0.4,0.2
		c-0.5,0.9-1.1,1.5-1.8,1.9c-0.4,0.2-1,0.3-1.5,0.3c-0.8,0-1.6-0.3-2.4-1c-0.7-0.7-1.1-1.8-1.1-3.2C93.7,100.2,94,99.1,94.7,98.4z
		 M98.4,100.6c0-1-0.1-1.8-0.2-2.2c-0.1-0.4-0.4-0.6-0.9-0.6c-0.4,0-0.7,0.2-0.9,0.7c-0.2,0.5-0.3,1.2-0.3,2.1H98.4z"/>
	<path class="st3" d="M43.5,117.4h0.5c0.3,1.3,0.7,2.3,1.3,2.9c0.6,0.6,1.3,0.9,2.1,0.9c0.8,0,1.3-0.2,1.6-0.6
		c0.3-0.4,0.5-0.8,0.5-1.3c0-0.5-0.2-1-0.5-1.3c-0.2-0.2-0.7-0.5-1.3-0.8l-1.1-0.6c-1.1-0.6-1.8-1.1-2.3-1.7c-0.4-0.5-0.7-1.2-0.7-2
		c0-0.9,0.3-1.7,0.9-2.4c0.6-0.7,1.5-1.1,2.7-1.1c0.6,0,1.2,0.1,1.8,0.3c0.6,0.2,0.9,0.3,1,0.3c0.2,0,0.3-0.1,0.4-0.2
		c0.1-0.1,0.1-0.3,0.2-0.4H51v3.8h-0.5c-0.2-0.9-0.6-1.6-1.2-2.3c-0.6-0.6-1.2-1-2-1c-0.6,0-1,0.2-1.3,0.5s-0.5,0.7-0.5,1.2
		c0,0.6,0.2,1,0.5,1.2c0.3,0.3,1,0.7,2,1.2l1.3,0.7c0.6,0.3,1,0.6,1.3,1c0.6,0.7,0.9,1.5,0.9,2.4c0,0.9-0.3,1.7-1,2.5
		s-1.7,1.2-3.2,1.2c-0.3,0-0.7,0-1-0.1s-0.7-0.2-1-0.3l-0.3-0.1c-0.1,0-0.1,0-0.2-0.1c-0.1,0-0.1,0-0.2,0c-0.2,0-0.3,0.1-0.4,0.2
		s-0.1,0.3-0.2,0.4h-0.5V117.4z"/>
	<path class="st3" d="M53.5,114.5c0.7-0.8,1.6-1.2,2.7-1.2c1.1,0,2,0.4,2.8,1.2c0.7,0.8,1.1,1.8,1.1,3c0,1.2-0.4,2.2-1.1,3
		c-0.7,0.8-1.6,1.3-2.8,1.3c-1.1,0-2-0.4-2.7-1.2c-0.7-0.8-1.1-1.8-1.1-3C52.4,116.3,52.8,115.3,53.5,114.5z M55.1,120.1
		c0.2,0.8,0.6,1.1,1.2,1.1c0.5,0,0.9-0.3,1.1-0.9c0.2-0.6,0.3-1.5,0.3-2.8c0-1.3-0.1-2.2-0.3-2.8c-0.2-0.6-0.5-0.9-1.1-0.9
		c-0.6,0-1,0.4-1.2,1.1c-0.1,0.5-0.2,1.4-0.2,2.6C54.9,118.7,55,119.6,55.1,120.1z"/>
	<path class="st3" d="M66.5,113.8c0.5,0.4,0.8,0.8,0.8,1.4c0,0.3-0.1,0.6-0.3,0.8c-0.2,0.2-0.5,0.3-0.8,0.3c-0.2,0-0.4-0.1-0.6-0.2
		c-0.3-0.2-0.5-0.5-0.5-1c0-0.1,0-0.1,0-0.2c0-0.1,0-0.2,0-0.3c0-0.3-0.1-0.5-0.2-0.6c-0.1-0.1-0.3-0.2-0.5-0.2
		c-0.5,0-0.9,0.3-1.1,0.9c-0.2,0.6-0.3,1.3-0.3,2c0,1.1,0.2,2,0.6,2.8c0.4,0.7,1,1.1,1.7,1.1c0.4,0,0.8-0.1,1.1-0.3
		c0.2-0.1,0.4-0.3,0.7-0.7l0.3,0.3c-0.6,0.8-1.2,1.3-1.9,1.6c-0.4,0.2-0.8,0.2-1.3,0.2c-1.1,0-2-0.4-2.7-1.2c-0.7-0.8-1-1.8-1-2.9
		c0-1.2,0.4-2.3,1.1-3.1c0.7-0.9,1.7-1.3,2.9-1.3C65.4,113.2,66,113.4,66.5,113.8z"/>
	<path class="st3" d="M67.9,121.1c0.3-0.1,0.5-0.1,0.6-0.2c0.2-0.2,0.2-0.4,0.2-0.8v-5.1c0-0.4-0.1-0.6-0.2-0.7
		c-0.1-0.1-0.3-0.2-0.7-0.3v-0.4h3.3v6.7c0,0.4,0.1,0.6,0.2,0.7c0.1,0.1,0.3,0.2,0.6,0.3v0.4h-4.1V121.1z M69,109.8
		c0.3-0.3,0.6-0.4,0.9-0.4c0.4,0,0.7,0.1,0.9,0.4c0.3,0.3,0.4,0.6,0.4,1c0,0.4-0.1,0.7-0.4,1c-0.3,0.3-0.6,0.4-0.9,0.4
		c-0.4,0-0.7-0.1-0.9-0.4c-0.3-0.3-0.4-0.6-0.4-1C68.6,110.4,68.7,110.1,69,109.8z"/>
	<path class="st3" d="M73.5,114.4c0.7-0.7,1.5-1.1,2.5-1.1c0.6,0,1.1,0.2,1.6,0.5s0.9,0.7,1.1,1.3c0.2,0.4,0.3,0.9,0.4,1.6
		c0,0.3,0.1,0.5,0.1,0.7h-4.3c0,0.7,0.2,1.3,0.3,1.8c0.3,1,0.9,1.4,1.8,1.4c0.4,0,0.8-0.1,1.1-0.4c0.2-0.2,0.5-0.4,0.8-0.8l0.4,0.2
		c-0.5,0.9-1.1,1.5-1.8,1.9c-0.4,0.2-1,0.3-1.5,0.3c-0.8,0-1.6-0.3-2.4-1c-0.7-0.7-1.1-1.8-1.1-3.2
		C72.4,116.2,72.8,115.1,73.5,114.4z M77.1,116.6c0-1-0.1-1.8-0.2-2.2c-0.1-0.4-0.4-0.6-0.9-0.6c-0.4,0-0.7,0.2-0.9,0.7
		s-0.3,1.2-0.3,2.1H77.1z"/>
	<path class="st3" d="M79.6,114.2v-0.5c0.1-0.1,0.3-0.3,0.6-0.5c0.3-0.3,0.6-0.6,0.8-0.9c0.5-0.6,1-1.2,1.4-1.9h0.4v3h1.6v0.8h-1.6
		v5.3c0,0.2,0,0.5,0.1,0.6c0.1,0.3,0.3,0.4,0.5,0.4c0.2,0,0.4-0.1,0.6-0.2s0.3-0.4,0.4-0.7l0.4,0.2c-0.2,0.5-0.4,0.9-0.7,1.2
		c-0.5,0.5-1.1,0.8-1.8,0.8c-0.4,0-0.7-0.1-1-0.2c-0.6-0.3-0.9-0.8-0.9-1.6v-5.7H79.6z"/>
	<path class="st3" d="M85.1,122.9c0.2-0.2,0.5-0.3,0.9-0.3c0.3,0,0.5,0.1,0.7,0.2c0.2,0.2,0.3,0.4,0.3,0.6l0,0.4
		c0,0.1,0,0.1,0.1,0.2c0.1,0.1,0.1,0.1,0.2,0.1c0.3,0,0.6-0.2,0.8-0.7c0.2-0.3,0.4-0.9,0.7-1.7l-2-5.1c-0.1-0.4-0.3-0.7-0.4-1
		c-0.1-0.3-0.3-0.6-0.4-0.9c-0.2-0.3-0.3-0.5-0.4-0.6s-0.2-0.1-0.5-0.2v-0.4h4.2v0.4c-0.3,0-0.5,0-0.7,0.1c-0.2,0.1-0.3,0.2-0.3,0.4
		c0,0,0,0.1,0,0.2c0,0.1,0.1,0.2,0.1,0.4l1.4,3.4H90l1.1-3.1c0.1-0.2,0.1-0.3,0.1-0.4c0-0.1,0.1-0.2,0.1-0.3c0-0.2-0.1-0.4-0.2-0.5
		c-0.2-0.1-0.4-0.1-0.7-0.1v-0.4h2.6v0.4c-0.2,0-0.4,0.1-0.5,0.2c-0.1,0.1-0.3,0.4-0.4,0.8l-2.5,7c-0.5,1.3-0.9,2.2-1.3,2.6
		c-0.4,0.5-0.9,0.7-1.7,0.7c-0.6,0-1-0.1-1.3-0.4s-0.4-0.6-0.4-0.9C84.8,123.4,84.9,123.1,85.1,122.9z"/>
</g>
</svg>
