<?xml version="1.0" encoding="utf-8"?>
<!-- Generator: Adobe Illustrator 16.0.4, SVG Export Plug-In . SVG Version: 6.00 Build 0)  -->
<!DOCTYPE svg PUBLIC "-//W3C//DTD SVG 1.1//EN" "http://www.w3.org/Graphics/SVG/1.1/DTD/svg11.dtd">
<svg version="1.1" id="Layer_1" xmlns="http://www.w3.org/2000/svg" xmlns:xlink="http://www.w3.org/1999/xlink" x="0px" y="0px"
	 width="133.7px" height="114.5px" viewBox="12 21.6 133.7 114.5" style="enable-background:new 12 21.6 133.7 114.5;"
	 xml:space="preserve">
<style type="text/css">
<![CDATA[
	.st0{fill:#981B1E;}
]]>
</style>
<g id="o3l3IQ.tif">
	<g>
		<path class="st0" d="M77.4,136.1c-3.3-0.2-6.5-0.2-9.8-1.3c-2-0.7-3.9-2-5.7-3.3c-6.5-4.8-11.8-10.7-16.8-17
			c-3.3-4.1-6.3-8.1-9.4-12.4c-2.4-3.3-4.4-6.8-6.5-10.3c-1.7-2.8-3.5-5.9-5.2-8.9c-1.3-2.4-2.4-4.6-3.5-7
			c-1.5-3.5-3.1-7.2-4.6-10.9c-0.7-1.5-1.1-3.1-1.5-4.8c-0.9-3.5-1.5-7-2.2-10.7c-0.7-3.7,0.4-7.2,1.7-10.7
			c2.6-6.5,7.2-11.1,12.6-15.3c1.7-1.3,3.5-1.5,5.5-2c0.4,0,0.9,0.2,1.3,0.4c1.3,1.3,2.4,2.6,3.5,3.9c3.5,4.8,6.3,9.8,8.7,15.3
			c0.9,1.7,1.3,3.7,1.7,5.5c0.2,0.9,0,1.7-0.9,2.4c-3.9,2.8-7.9,5.7-11.8,8.5c-1.1,0.9-0.7,2-0.4,2.8c0.4,1.5,0.9,3.3,1.5,4.8
			c2,4.8,4.4,9.2,7,13.5c3.9,7,8.3,13.5,13.1,19.8c2.8,3.7,5.7,7.4,9.4,10.5c0.7,0.7,1.5,1.1,2.4,1.5c0.4,0.2,1.1,0.2,1.5,0
			c2.8-1.5,5.7-3.3,8.5-4.8c1.7-0.9,2.4-1.1,3.9,0.4c2.4,2,4.8,4.1,6.8,6.3c2.6,2.8,5,5.9,7.4,8.9c0.9,1.3,1.5,2.6,2.4,4.1
			c0.4,0.9,0.2,1.7-0.4,2.4c-2.2,3.3-5.2,5-8.7,6.3C85.1,135.4,81.4,135.9,77.4,136.1z"/>
		<path class="st0" d="M102.7,38.8c13.5,0,26.8,0,40.3,0c1.5,0,2.6,0.9,2.6,2.6c0,8.3,0,16.6,0,24.9c0,6.5,0,13.3,0,19.8
			c0,2.4-0.7,3.1-3.1,3.1c-26.6,0-53.2,0-79.8,0c-2,0-2.8-0.9-2.8-2.8c0-13.7,0-27.3,0-41c0-1.3,0-2.6,0-3.9c0-1.5,1.1-2.6,2.6-2.6
			C75.9,38.8,89.4,38.8,102.7,38.8z M64.3,64.8c0,6.1,0,12.4,0,18.5c0,1.1,0.2,1.3,1.3,1.3s2.2,0,3.3,0c5,0,10.3,0,15.3,0
			c4.8,0,9.6,0,14.4,0c7,0,13.7,0,20.7,0c6.8,0,13.5,0,20.3,0c1.1,0,1.5-0.2,1.5-1.3c0-12.2,0-24.6,0-36.9c0-0.2,0-0.4,0-0.7
			c0-0.7-0.2-0.9-0.9-0.4c-2.8,1.5-5.7,3.3-8.5,4.8c-2.8,1.5-5.7,3.3-8.5,5c-4.1,2.2-8.1,4.6-12.2,6.8c-2.4,1.3-4.6,2.6-7,3.9
			c-0.9,0.4-1.5,0.4-2.4,0c-1.1-0.7-2-1.1-3.1-1.7c-3.3-1.7-6.5-3.7-9.8-5.5c-2.6-1.5-5.2-2.8-7.9-4.4c-2.2-1.1-4.1-2.4-6.1-3.5
			c-3.1-1.7-5.9-3.5-8.9-5.2c-1.3-0.7-1.3-0.4-1.3,0.9C64.3,52.6,64.3,58.7,64.3,64.8z M71.8,43.4l-0.2,0.2c0.2,0.2,0.7,0.7,0.9,0.7
			c1.7,1.1,3.7,2,5.5,3.1c3.5,2,7,3.9,10.5,5.9c3.9,2.2,8.1,4.4,12,6.8c1.5,0.9,2.6,1.1,4.4,0c4.8-2.8,9.6-5.5,14.4-8.1
			c4.8-2.6,9.4-5.2,14-7.9c0.2-0.2,0.4-0.7,0.9-0.9C113.2,43.4,92.5,43.4,71.8,43.4z"/>
	</g>
</g>
</svg>
