<?xml version="1.0" encoding="utf-8"?>
<!-- Generator: Adobe Illustrator 16.0.4, SVG Export Plug-In . SVG Version: 6.00 Build 0)  -->
<!DOCTYPE svg PUBLIC "-//W3C//DTD SVG 1.1//EN" "http://www.w3.org/Graphics/SVG/1.1/DTD/svg11.dtd">
<svg version="1.1" id="Layer_1" xmlns="http://www.w3.org/2000/svg" xmlns:xlink="http://www.w3.org/1999/xlink" x="0px" y="0px"
	 width="157.7px" height="157.7px" viewBox="0 0 157.7 157.7" style="enable-background:new 0 0 157.7 157.7;" xml:space="preserve"
	>
<style type="text/css">
<![CDATA[
	.st0{fill:none;stroke:#981B1E;stroke-width:3;stroke-miterlimit:10;}
	.st1{fill-rule:evenodd;clip-rule:evenodd;fill:#981B1E;}
]]>
</style>
<path class="st0" d="M89,152c-5.6,5.6-14.7,5.6-20.4,0L5.7,89c-5.6-5.6-5.6-14.7,0-20.4L68.7,5.7c5.6-5.6,14.7-5.6,20.4,0L152,68.7
	c5.6,5.6,5.6,14.7,0,20.4L89,152z"/>
<g id="o3l3IQ.tif">
	<g>
		<path class="st1" d="M78.2,105.1c-1.5-0.1-3-0.1-4.5-0.6c-0.9-0.3-1.8-0.9-2.6-1.5c-3-2.2-5.4-4.9-7.7-7.8
			c-1.5-1.9-2.9-3.7-4.3-5.7c-1.1-1.5-2-3.1-3-4.7c-0.8-1.3-1.6-2.7-2.4-4.1c-0.6-1.1-1.1-2.1-1.6-3.2c-0.7-1.6-1.4-3.3-2.1-5
			c-0.3-0.7-0.5-1.4-0.7-2.2c-0.4-1.6-0.7-3.2-1-4.9c-0.3-1.7,0.2-3.3,0.8-4.9c1.2-3,3.3-5.1,5.8-7c0.8-0.6,1.6-0.7,2.5-0.9
			c0.2,0,0.4,0.1,0.6,0.2c0.6,0.6,1.1,1.2,1.6,1.8c1.6,2.2,2.9,4.5,4,7c0.4,0.8,0.6,1.7,0.8,2.5c0.1,0.4,0,0.8-0.4,1.1
			c-1.8,1.3-3.6,2.6-5.4,3.9c-0.5,0.4-0.3,0.9-0.2,1.3c0.2,0.7,0.4,1.5,0.7,2.2c0.9,2.2,2,4.2,3.2,6.2c1.8,3.2,3.8,6.2,6,9.1
			c1.3,1.7,2.6,3.4,4.3,4.8c0.3,0.3,0.7,0.5,1.1,0.7c0.2,0.1,0.5,0.1,0.7,0c1.3-0.7,2.6-1.5,3.9-2.2c0.8-0.4,1.1-0.5,1.8,0.2
			c1.1,0.9,2.2,1.9,3.1,2.9c1.2,1.3,2.3,2.7,3.4,4.1c0.4,0.6,0.7,1.2,1.1,1.9c0.2,0.4,0.1,0.8-0.2,1.1c-1,1.5-2.4,2.3-4,2.9
			C81.7,104.8,80,105,78.2,105.1z"/>
		<path class="st1" d="M89.8,60.5c6.2,0,12.3,0,18.5,0c0.7,0,1.2,0.4,1.2,1.2c0,3.8,0,7.6,0,11.4c0,3,0,6.1,0,9.1
			c0,1.1-0.3,1.4-1.4,1.4c-12.2,0-24.4,0-36.6,0c-0.9,0-1.3-0.4-1.3-1.3c0-6.3,0-12.5,0-18.8c0-0.6,0-1.2,0-1.8
			c0-0.7,0.5-1.2,1.2-1.2C77.5,60.5,83.7,60.5,89.8,60.5z M72.2,72.4c0,2.8,0,5.7,0,8.5c0,0.5,0.1,0.6,0.6,0.6c0.5,0,1,0,1.5,0
			c2.3,0,4.7,0,7,0c2.2,0,4.4,0,6.6,0c3.2,0,6.3,0,9.5,0c3.1,0,6.2,0,9.3,0c0.5,0,0.7-0.1,0.7-0.6c0-5.6,0-11.3,0-16.9
			c0-0.1,0-0.2,0-0.3c0-0.3-0.1-0.4-0.4-0.2c-1.3,0.7-2.6,1.5-3.9,2.2c-1.3,0.7-2.6,1.5-3.9,2.3c-1.9,1-3.7,2.1-5.6,3.1
			c-1.1,0.6-2.1,1.2-3.2,1.8c-0.4,0.2-0.7,0.2-1.1,0c-0.5-0.3-0.9-0.5-1.4-0.8c-1.5-0.8-3-1.7-4.5-2.5c-1.2-0.7-2.4-1.3-3.6-2
			c-1-0.5-1.9-1.1-2.8-1.6c-1.4-0.8-2.7-1.6-4.1-2.4c-0.6-0.3-0.6-0.2-0.6,0.4C72.2,66.8,72.2,69.6,72.2,72.4z M75.6,62.6
			c0,0-0.1,0.1-0.1,0.1c0.1,0.1,0.3,0.3,0.4,0.3c0.8,0.5,1.7,0.9,2.5,1.4c1.6,0.9,3.2,1.8,4.8,2.7c1.8,1,3.7,2,5.5,3.1
			c0.7,0.4,1.2,0.5,2,0c2.2-1.3,4.4-2.5,6.6-3.7c2.2-1.2,4.3-2.4,6.4-3.6c0.1-0.1,0.2-0.3,0.4-0.4C94.6,62.6,85.1,62.6,75.6,62.6z"
			/>
	</g>
</g>
</svg>
