<?xml version="1.0" encoding="utf-8"?>
<!-- Generator: Adobe Illustrator 16.0.4, SVG Export Plug-In . SVG Version: 6.00 Build 0)  -->
<!DOCTYPE svg PUBLIC "-//W3C//DTD SVG 1.1//EN" "http://www.w3.org/Graphics/SVG/1.1/DTD/svg11.dtd">
<svg version="1.1" id="Layer_1" xmlns="http://www.w3.org/2000/svg" xmlns:xlink="http://www.w3.org/1999/xlink" x="0px" y="0px"
	 width="90.3px" height="90.3px" viewBox="0 0 90.3 90.3" enable-background="new 0 0 90.3 90.3" xml:space="preserve">
<path fill="#252525" d="M18.4,17.5c0,0.5-0.4,0.9-0.9,0.9H0.9C0.4,18.4,0,18,0,17.5V0.9C0,0.4,0.4,0,0.9,0h16.6
	c0.5,0,0.9,0.4,0.9,0.9V17.5z"/>
<path fill="#252525" d="M54.4,17.5c0,0.5-0.4,0.9-0.9,0.9H36.8c-0.5,0-0.9-0.4-0.9-0.9V0.9C36,0.4,36.4,0,36.8,0h16.6
	c0.5,0,0.9,0.4,0.9,0.9v16.6H54.4z"/>
<path fill="#252525" d="M54.4,53.5c0,0.5-0.4,0.9-0.9,0.9H36.8c-0.5,0-0.9-0.4-0.9-0.9V36.8c0-0.5,0.4-0.9,0.9-0.9h16.6
	c0.5,0,0.9,0.4,0.9,0.9v16.7H54.4z"/>
<path fill="#252525" d="M18.4,53.5c0,0.5-0.4,0.9-0.9,0.9H0.9C0.4,54.4,0,54,0,53.5V36.8C0,36.4,0.4,36,0.9,36h16.6
	c0.5,0,0.9,0.4,0.9,0.9V53.5z"/>
<path fill="#252525" d="M18.4,89.5c0,0.5-0.4,0.9-0.9,0.9H0.9C0.4,90.4,0,90,0,89.5V72.8C0,72.3,0.4,72,0.9,72h16.6
	c0.5,0,0.9,0.4,0.9,0.9V89.5z"/>
<path fill="#252525" d="M54.4,89.5c0,0.5-0.4,0.9-0.9,0.9H36.8c-0.5,0-0.9-0.4-0.9-0.9V72.8c0-0.5,0.4-0.9,0.9-0.9h16.6
	c0.5,0,0.9,0.4,0.9,0.9V89.5H54.4z"/>
<path fill="#252525" d="M90.3,53.5c0,0.5-0.4,0.9-0.9,0.9H72.8c-0.5,0-0.9-0.4-0.9-0.9V36.8c0-0.5,0.4-0.9,0.9-0.9h16.6
	c0.5,0,0.9,0.4,0.9,0.9V53.5z"/>
<path fill="#252525" d="M90.3,17.5c0,0.5-0.4,0.9-0.9,0.9H72.8c-0.5,0-0.9-0.4-0.9-0.9V0.9C72,0.4,72.3,0,72.8,0h16.6
	c0.5,0,0.9,0.4,0.9,0.9V17.5z"/>
<path fill="#252525" d="M90.3,89.5c0,0.5-0.4,0.9-0.9,0.9H72.8c-0.5,0-0.9-0.4-0.9-0.9V72.8c0-0.5,0.4-0.9,0.9-0.9h16.6
	c0.5,0,0.9,0.4,0.9,0.9V89.5z"/>
</svg>
