<?xml version="1.0" encoding="utf-8"?>
<!-- Generator: Adobe Illustrator 16.0.4, SVG Export Plug-In . SVG Version: 6.00 Build 0)  -->
<!DOCTYPE svg PUBLIC "-//W3C//DTD SVG 1.1//EN" "http://www.w3.org/Graphics/SVG/1.1/DTD/svg11.dtd">
<svg version="1.1" id="Layer_1" xmlns="http://www.w3.org/2000/svg" xmlns:xlink="http://www.w3.org/1999/xlink" x="0px" y="0px"
	 width="157.7px" height="157.7px" viewBox="0 0 157.7 157.7" style="enable-background:new 0 0 157.7 157.7;" xml:space="preserve"
	>
<style type="text/css">
<![CDATA[
	.st0{fill:none;stroke:#981B1E;stroke-width:3;stroke-miterlimit:10;}
	.st1{fill-rule:evenodd;clip-rule:evenodd;fill:#981B1E;}
]]>
</style>
<path class="st0" d="M89,152c-5.6,5.6-14.7,5.6-20.4,0L5.7,89c-5.6-5.6-5.6-14.7,0-20.4L68.7,5.7c5.6-5.6,14.7-5.6,20.4,0L152,68.7
	c5.6,5.6,5.6,14.7,0,20.4L89,152z"/>
<g id="VR5IAv.tif">
	<g>
		<path class="st1" d="M82.3,65.4c4.9,0,7.4,3,6.1,8.2c-1,3.8-2.4,7.5-3.8,11.2c-1.5,4.2-3.1,8.3-4.6,12.5c-0.3,0.9-0.6,1.8-0.7,2.8
			c-0.1,0.5,0.1,1.2,0.5,1.5c0.3,0.2,1.1,0.2,1.5,0c0.9-0.5,1.7-1.1,2.5-1.9c1.6-1.6,3-3.3,4.6-4.9c0.4-0.5,0.9-1.2,1.7-0.7
			c0.8,0.5,0.7,1.4,0.4,2.1c-0.3,0.5-0.6,1.1-0.9,1.5c-3.6,4.8-8.1,8.6-13.8,10.8c-1.8,0.7-3.9,1-5.8,1c-3.3,0.1-5.3-2-5-5.2
			c0.3-2.8,0.8-5.7,1.8-8.4c2.5-7,5.4-14,8.1-21c0.4-1,1.1-2.1,0-3c-1.1-0.8-2.2,0-3,0.7c-1.5,1.4-2.9,3-4.3,4.5
			c-0.7,0.7-1.2,1.5-2,2.1c-0.4,0.3-1.3,0.4-1.5,0.2c-0.3-0.4-0.4-1.1-0.3-1.7c0-0.4,0.3-0.7,0.5-1c2.9-3.7,6.1-7.1,10.4-9.3
			C77,66.2,79.5,65.5,82.3,65.4z"/>
		<path class="st1" d="M80.1,55.7c0-5,5.1-8.6,9.8-7.1c3.4,1.1,5.1,4.7,3.8,8.4c-1.3,4-5.8,6.2-9.8,4.8C81.5,60.8,80,58.6,80.1,55.7
			z"/>
	</g>
</g>
</svg>
