<?xml version="1.0" encoding="utf-8"?>
<!-- Generator: Adobe Illustrator 16.0.0, SVG Export Plug-In . SVG Version: 6.00 Build 0)  -->
<!DOCTYPE svg PUBLIC "-//W3C//DTD SVG 1.1//EN" "http://www.w3.org/Graphics/SVG/1.1/DTD/svg11.dtd" [
	<!ENTITY ns_extend "http://ns.adobe.com/Extensibility/1.0/">
	<!ENTITY ns_ai "http://ns.adobe.com/AdobeIllustrator/10.0/">
	<!ENTITY ns_graphs "http://ns.adobe.com/Graphs/1.0/">
	<!ENTITY ns_vars "http://ns.adobe.com/Variables/1.0/">
	<!ENTITY ns_imrep "http://ns.adobe.com/ImageReplacement/1.0/">
	<!ENTITY ns_sfw "http://ns.adobe.com/SaveForWeb/1.0/">
	<!ENTITY ns_custom "http://ns.adobe.com/GenericCustomNamespace/1.0/">
	<!ENTITY ns_adobe_xpath "http://ns.adobe.com/XPath/1.0/">
]>
<svg version="1.1" id="chantry_island" xmlns:x="&ns_extend;" xmlns:i="&ns_ai;" xmlns:graph="&ns_graphs;"
	 xmlns="http://www.w3.org/2000/svg" xmlns:xlink="http://www.w3.org/1999/xlink" x="0px" y="0px" width="30px" height="53px"
	 viewBox="38.377 76.146 30 53" enable-background="new 38.377 76.146 30 53" xml:space="preserve">
<metadata>
	<sfw  xmlns="&ns_sfw;">
		<slices></slices>
		<sliceSourceBounds  width="24.686" height="46.517" x="419.157" y="408.596" bottomLeftOrigin="true"></sliceSourceBounds>
	</sfw>
</metadata>
<g id="little_arrows">
	<polygon id="tr" fill="#475A84" points="59.53,84.897 61.59,83.701 60.395,85.762 	"/>
	<polygon id="bl" fill="#475A84" points="48.298,97.858 46.238,99.054 47.434,96.993 	"/>
	<polygon id="tl" fill="#475A84" points="47.434,85.761 46.237,83.701 48.298,84.897 	"/>
	<polygon id="br" fill="#475A84" points="60.395,96.993 61.59,99.053 59.53,97.857 	"/>
</g>
<circle fill="none" stroke="#981B1E" stroke-width="0.9164" stroke-miterlimit="10" cx="53.877" cy="91.377" r="11.885"/>
<g>
	<path fill="#F4F4F4" d="M53.915,125.55V99.913l-0.403,0.049c-2.177-0.092-4.143-0.993-5.608-2.41L53.915,125.55z"/>
	<path fill="#475A84" d="M54.324,99.958l-0.41-0.046l0,25.638l6.055-28.112l-0.001,0.001C58.51,98.904,56.527,99.846,54.324,99.958z
		"/>
</g>
<circle fill="#475A84" cx="53.877" cy="91.377" r="8.593"/>
</svg>
