<?xml version="1.0" encoding="utf-8"?>
<!-- Generator: Adobe Illustrator 16.0.0, SVG Export Plug-In . SVG Version: 6.00 Build 0)  -->
<!DOCTYPE svg PUBLIC "-//W3C//DTD SVG 1.1//EN" "http://www.w3.org/Graphics/SVG/1.1/DTD/svg11.dtd" [
	<!ENTITY ns_extend "http://ns.adobe.com/Extensibility/1.0/">
	<!ENTITY ns_ai "http://ns.adobe.com/AdobeIllustrator/10.0/">
	<!ENTITY ns_graphs "http://ns.adobe.com/Graphs/1.0/">
	<!ENTITY ns_vars "http://ns.adobe.com/Variables/1.0/">
	<!ENTITY ns_imrep "http://ns.adobe.com/ImageReplacement/1.0/">
	<!ENTITY ns_sfw "http://ns.adobe.com/SaveForWeb/1.0/">
	<!ENTITY ns_custom "http://ns.adobe.com/GenericCustomNamespace/1.0/">
	<!ENTITY ns_adobe_xpath "http://ns.adobe.com/XPath/1.0/">
]>
<svg version="1.1" id="Layer_1" xmlns:x="&ns_extend;" xmlns:i="&ns_ai;" xmlns:graph="&ns_graphs;"
	 xmlns="http://www.w3.org/2000/svg" xmlns:xlink="http://www.w3.org/1999/xlink" x="0px" y="0px" width="252px" height="288px"
	 viewBox="0 0 252 288" enable-background="new 0 0 252 288" xml:space="preserve">
<metadata>
	<sfw  xmlns="&ns_sfw;">
		<slices></slices>
		<sliceSourceBounds  width="252.011" height="252" bottomLeftOrigin="true" y="18.5" x="-1.506"></sliceSourceBounds>
	</sfw>
</metadata>
<g id="Layer_139">
	<g>
		<path fill="#252525" d="M251.005,144c0,69.584-56.417,126-125.99,126C55.41,270-1.006,213.584-1.006,144
			c0-69.594,56.417-126,126.021-126C194.588,18,251.005,74.406,251.005,144z"/>
		<g>
			<path fill="#FFFFFF" d="M104.995,222.75h31.5c0,0,0-43.48,0-78.75h23.379l2.871-31.5h-25.031V99.905
				c0-6.137,4.09-7.565,6.961-7.565c2.872,0,17.672,0,17.672,0V65.35l-24.334-0.1c-27.011,0-33.148,20.128-33.148,33.012V112.5
				H89.245V144h15.75C104.995,179.695,104.995,222.75,104.995,222.75z"/>
		</g>
	</g>
</g>
<g id="Layer_1_1_">
</g>
</svg>
