<?xml version="1.0" encoding="utf-8"?>
<!-- Generator: Adobe Illustrator 16.0.0, SVG Export Plug-In . SVG Version: 6.00 Build 0)  -->
<!DOCTYPE svg PUBLIC "-//W3C//DTD SVG 1.1//EN" "http://www.w3.org/Graphics/SVG/1.1/DTD/svg11.dtd" [
	<!ENTITY ns_extend "http://ns.adobe.com/Extensibility/1.0/">
	<!ENTITY ns_ai "http://ns.adobe.com/AdobeIllustrator/10.0/">
	<!ENTITY ns_graphs "http://ns.adobe.com/Graphs/1.0/">
	<!ENTITY ns_vars "http://ns.adobe.com/Variables/1.0/">
	<!ENTITY ns_imrep "http://ns.adobe.com/ImageReplacement/1.0/">
	<!ENTITY ns_sfw "http://ns.adobe.com/SaveForWeb/1.0/">
	<!ENTITY ns_custom "http://ns.adobe.com/GenericCustomNamespace/1.0/">
	<!ENTITY ns_adobe_xpath "http://ns.adobe.com/XPath/1.0/">
]>
<svg version="1.1" id="Layer_1" xmlns:x="&ns_extend;" xmlns:i="&ns_ai;" xmlns:graph="&ns_graphs;"
	 xmlns="http://www.w3.org/2000/svg" xmlns:xlink="http://www.w3.org/1999/xlink" x="0px" y="0px" width="396px" height="319px"
	 viewBox="106.5 235.5 396 319" enable-background="new 106.5 235.5 396 319" xml:space="preserve">
<metadata>
	<sfw  xmlns="&ns_sfw;">
		<slices></slices>
		<sliceSourceBounds  y="243.5" x="114.238" width="382.525" height="306" bottomLeftOrigin="true"></sliceSourceBounds>
	</sfw>
</metadata>
<g id="Layer_142">
	<g>
		<g>
			<path fill="#FFFFFF" d="M486.706,248.636c-15.16,8.861-31.979,15.3-49.854,18.768C422.561,252.384,402.16,243,379.58,243
				c-43.324,0-78.463,34.591-78.463,77.252c0,6.056,0.701,11.934,2.015,17.595c-65.216-3.226-123.038-33.979-161.747-80.708
				c-6.745,11.398-10.633,24.671-10.633,38.836c0,26.788,13.885,50.439,34.922,64.286c-12.852-0.408-24.964-3.876-35.547-9.652
				c0,0.319,0,0.65,0,0.969c0,37.421,27.056,68.646,62.959,75.761c-6.592,1.759-13.515,2.703-20.693,2.703
				c-5.049,0-9.958-0.485-14.764-1.391c10.009,30.677,38.977,53.026,73.312,53.651c-26.864,20.72-60.69,33.073-97.474,33.073
				c-6.349,0-12.571-0.369-18.729-1.083C149.481,536.212,190.753,549,235.046,549c144.355,0,223.278-117.695,223.278-219.785
				c0-3.34-0.051-6.694-0.204-9.996c15.312-10.889,28.637-24.493,39.143-39.997c-14.062,6.158-29.185,10.289-45.07,12.164
				C468.409,281.824,480.828,266.689,486.706,248.636z"/>
		</g>
	</g>
</g>
<g id="Layer_1_1_">
</g>
</svg>
