<?xml version="1.0" encoding="utf-8"?>
<!-- Generator: Adobe Illustrator 16.0.0, SVG Export Plug-In . SVG Version: 6.00 Build 0)  -->
<!DOCTYPE svg PUBLIC "-//W3C//DTD SVG 1.1//EN" "http://www.w3.org/Graphics/SVG/1.1/DTD/svg11.dtd" [
	<!ENTITY ns_extend "http://ns.adobe.com/Extensibility/1.0/">
	<!ENTITY ns_ai "http://ns.adobe.com/AdobeIllustrator/10.0/">
	<!ENTITY ns_graphs "http://ns.adobe.com/Graphs/1.0/">
	<!ENTITY ns_vars "http://ns.adobe.com/Variables/1.0/">
	<!ENTITY ns_imrep "http://ns.adobe.com/ImageReplacement/1.0/">
	<!ENTITY ns_sfw "http://ns.adobe.com/SaveForWeb/1.0/">
	<!ENTITY ns_custom "http://ns.adobe.com/GenericCustomNamespace/1.0/">
	<!ENTITY ns_adobe_xpath "http://ns.adobe.com/XPath/1.0/">
]>
<svg version="1.1" id="Layer_1" xmlns:x="&ns_extend;" xmlns:i="&ns_ai;" xmlns:graph="&ns_graphs;"
	 xmlns="http://www.w3.org/2000/svg" xmlns:xlink="http://www.w3.org/1999/xlink" x="0px" y="0px" width="396px" height="319px"
	 viewBox="0 0 396 319" enable-background="new 0 0 396 319" xml:space="preserve">
<metadata>
	<sfw  xmlns="&ns_sfw;">
		<slices></slices>
		<sliceSourceBounds  width="382.525" height="306" bottomLeftOrigin="true" x="114.238" y="243.5"></sliceSourceBounds>
	</sfw>
</metadata>
<g id="Layer_142">
	<g>
		<g>
			<path fill="#252525" d="M378.706,12.136c-15.16,8.861-31.979,15.3-49.854,18.769C314.561,15.884,294.16,6.5,271.58,6.5
				c-43.324,0-78.463,34.591-78.463,77.252c0,6.057,0.701,11.934,2.015,17.596C129.916,98.121,72.094,67.368,33.385,20.639
				C26.64,32.037,22.752,45.311,22.752,59.475c0,26.789,13.885,50.439,34.922,64.287c-12.852-0.408-24.964-3.877-35.547-9.652
				c0,0.318,0,0.649,0,0.969c0,37.421,27.056,68.646,62.959,75.761c-6.592,1.759-13.515,2.703-20.693,2.703
				c-5.049,0-9.958-0.485-14.764-1.391c10.009,30.677,38.977,53.025,73.312,53.65c-26.864,20.721-60.69,33.073-97.475,33.073
				c-6.349,0-12.571-0.369-18.729-1.083c34.743,21.92,76.015,34.708,120.308,34.708c144.355,0,223.278-117.695,223.278-219.785
				c0-3.34-0.051-6.693-0.204-9.996c15.312-10.889,28.637-24.492,39.143-39.996c-14.062,6.157-29.185,10.288-45.069,12.163
				C360.409,45.324,372.828,30.189,378.706,12.136z"/>
		</g>
	</g>
</g>
<g id="Layer_1_1_">
</g>
</svg>
