<?xml version="1.0" encoding="utf-8"?>
<!-- Generator: Adobe Illustrator 16.0.0, SVG Export Plug-In . SVG Version: 6.00 Build 0)  -->
<!DOCTYPE svg PUBLIC "-//W3C//DTD SVG 1.1//EN" "http://www.w3.org/Graphics/SVG/1.1/DTD/svg11.dtd" [
	<!ENTITY ns_extend "http://ns.adobe.com/Extensibility/1.0/">
	<!ENTITY ns_ai "http://ns.adobe.com/AdobeIllustrator/10.0/">
	<!ENTITY ns_graphs "http://ns.adobe.com/Graphs/1.0/">
	<!ENTITY ns_vars "http://ns.adobe.com/Variables/1.0/">
	<!ENTITY ns_imrep "http://ns.adobe.com/ImageReplacement/1.0/">
	<!ENTITY ns_sfw "http://ns.adobe.com/SaveForWeb/1.0/">
	<!ENTITY ns_custom "http://ns.adobe.com/GenericCustomNamespace/1.0/">
	<!ENTITY ns_adobe_xpath "http://ns.adobe.com/XPath/1.0/">
]>
<svg version="1.1" id="Layer_1" xmlns:x="&ns_extend;" xmlns:i="&ns_ai;" xmlns:graph="&ns_graphs;"
	 xmlns="http://www.w3.org/2000/svg" xmlns:xlink="http://www.w3.org/1999/xlink" x="0px" y="0px" width="397px" height="296px"
	 viewBox="0 0 397 296" enable-background="new 0 0 397 296" xml:space="preserve">
<metadata>
	<sfw  xmlns="&ns_sfw;">
		<slices></slices>
		<sliceSourceBounds  width="382.504" height="280.5" bottomLeftOrigin="true" x="114.248" y="256.25"></sliceSourceBounds>
	</sfw>
</metadata>
<g id="Layer_113">
	<g>
		<g>
			<g id="Lozenge_14_">
				<g>
					<path fill="#252525" d="M385.912,68.249c0,0-3.735-27.502-15.188-39.603c-14.547-15.86-30.854-15.963-38.301-16.881
						C278.862,7.75,198.6,7.75,198.6,7.75h-0.178c0,0-80.312,0-133.824,4.029c-7.472,0.904-23.753,1.007-38.327,16.881
						c-11.45,12.1-15.185,39.602-15.185,39.602s-3.838,32.258-3.838,64.54v30.243c0,32.296,3.838,64.579,3.838,64.579
						S14.822,255.1,26.271,267.2c14.573,15.886,33.698,15.376,42.19,17.033c30.602,3.061,130.039,4.017,130.039,4.017
						s80.363-0.153,133.926-4.156c7.446-0.931,23.754-1.008,38.301-16.906c11.45-12.101,15.188-39.574,15.188-39.574
						s3.838-32.271,3.838-64.566v-30.243C389.75,100.52,385.912,68.249,385.912,68.249z M159.025,199.739L159,87.68l103.338,56.24
						L159.025,199.739z"/>
				</g>
			</g>
		</g>
	</g>
</g>
<g id="Layer_1_1_">
</g>
</svg>
